<?xml version="1.0" encoding="UTF-8" standalone="no"?>
<!-- Created with Inkscape (http://www.inkscape.org/) -->

<svg
   width="100mm"
   height="100mm"
   viewBox="0 0 100 100"
   version="1.1"
   id="svg1"
   inkscape:version="1.4 (86a8ad7, 2024-10-11)"
   sodipodi:docname="w_cloudy_01.svg"
   xmlns:inkscape="http://www.inkscape.org/namespaces/inkscape"
   xmlns:sodipodi="http://sodipodi.sourceforge.net/DTD/sodipodi-0.dtd"
   xmlns="http://www.w3.org/2000/svg"
   xmlns:svg="http://www.w3.org/2000/svg">
  <sodipodi:namedview
     id="namedview1"
     pagecolor="#ffffff"
     bordercolor="#000000"
     borderopacity="0.25"
     inkscape:showpageshadow="2"
     inkscape:pageopacity="0.0"
     inkscape:pagecheckerboard="0"
     inkscape:deskcolor="#d1d1d1"
     inkscape:document-units="mm"
     inkscape:zoom="0.72604515"
     inkscape:cx="196.26879"
     inkscape:cy="146.68509"
     inkscape:window-width="1920"
     inkscape:window-height="1017"
     inkscape:window-x="1912"
     inkscape:window-y="-8"
     inkscape:window-maximized="1"
     inkscape:current-layer="layer1" />
  <defs
     id="defs1" />
  <g
     inkscape:label="Ebene 1"
     inkscape:groupmode="layer"
     id="layer1">
    <path
       d="m 5.608144,55.42006 q 0,-1.382009 0.964002,-2.281934 0.963998,-0.8999 2.474278,-0.8999 h 5.78404 q 1.38173,0 2.34573,0.8999 0.99613,0.932059 0.99613,2.281934 0,1.478438 -0.964,2.442631 -0.964,0.964193 -2.37786,0.964193 h -5.78404 q -1.51028,0 -2.474278,-0.964193 Q 5.608144,56.930632 5.608144,55.42006 Z m 6.07324,-21.212279 q 0,-4.981662 3.63106,-8.613473 3.6311,-3.663919 8.61177,-3.663919 h 23.52166 q 4.9807,0 8.51539,3.599651 3.56681,3.599652 3.56681,8.677741 0,2.474763 -0.70696,4.210322 4.27377,2.731886 6.74804,7.263597 2.5064,4.563845 2.5064,9.73836 0,4.178164 -1.6388,7.97067 -1.63881,3.82464 -4.40228,6.556524 -2.73134,2.76402 -6.55523,4.403152 -3.79175,1.639132 -7.93696,1.639132 -5.62335,0 -10.37911,-2.764021 -4.7236,-2.764044 -7.45495,-7.488585 -2.69921,-4.724539 -2.69921,-10.316872 v -1.157047 q -5.14134,-2.924714 -6.78015,-8.549179 -3.88813,-1.221315 -6.23387,-4.338883 -2.31361,-3.117542 -2.31361,-7.16717 z m 5.33415,48.563244 q 0,-1.446277 0.89972,-2.314069 l 5.52695,-5.78516 q 2.41002,-1.831961 4.82003,0 0.96401,0.964193 0.96401,2.410496 0,1.38201 -0.96401,2.410471 l -5.6555,5.624465 q -1.09254,0.996354 -2.37787,0.996354 -1.44601,0 -2.34573,-0.964193 -0.8676,-0.964195 -0.8676,-2.378364 z m 1.44599,-48.563244 q 0,2.153374 1.38174,3.696079 1.38173,1.542704 3.50255,1.735558 l 2.1208,0.289255 q 0.6748,0 0.6748,0.771339 l 0.32133,1.928414 q 0.35348,2.956847 2.50642,4.949527 2.15293,1.992655 5.07709,1.992655 2.98841,0 5.17346,-1.992655 2.21723,-1.99268 2.57068,-4.949527 l 0.2892,-2.217669 q 0.32135,-0.771339 0.83547,-0.771339 h 4.53081 q 2.21723,0 3.82388,-1.606997 1.63881,-1.606998 1.63881,-3.82464 0,-2.314069 -1.63881,-3.9532 -1.60665,-1.639132 -3.82388,-1.639132 h -23.52166 q -2.31361,0 -3.88814,1.639132 -1.57455,1.639131 -1.57455,3.9532 z m 15.16699,21.919352 q 0.35346,5.624465 4.338,9.449105 3.98455,3.824639 9.57577,3.824639 5.71976,0 9.73643,-4.081761 4.01667,-4.081761 4.01667,-9.899056 0,-3.599651 -1.76731,-6.685085 -1.73522,-3.053275 -4.72363,-4.949528 -3.02054,2.506898 -6.97296,2.506898 -1.51027,4.499577 -5.26987,7.16717 -3.75963,2.667618 -8.51536,2.667618 z m 10.5719,29.986449 q 0,-1.41417 0.964,-2.410497 0.99613,-0.964193 2.37787,-0.964193 1.41386,0 2.37789,0.964193 0.99613,0.996327 0.99613,2.410497 v 8.034935 q 0,1.349876 -0.99613,2.249803 -0.96403,0.932033 -2.37789,0.932033 -1.38174,0 -2.37787,-0.932033 -0.964,-0.899927 -0.964,-2.249803 z m 22.55766,-49.880987 q -0.89972,-0.93206 -0.89972,-2.314069 0,-1.38201 0.93188,-2.410497 l 5.62335,-5.560171 q 2.15292,-2.185509 4.82001,0 0.89972,0.867766 0.89972,2.314068 0,1.38201 -0.89972,2.28191 l -5.78401,5.753026 q -0.93188,0.867793 -2.34577,0.867793 -1.41386,0 -2.34574,-0.93206 z m -0.89972,40.913964 q 0,-1.446276 0.93188,-2.474763 0.93185,-0.932062 2.31358,-0.932062 1.41389,0 2.34577,0.932062 l 5.78401,5.78516 q 0.89972,0.867792 0.89972,2.314069 0,1.414169 -0.99613,2.378364 -0.964,0.964193 -2.37786,0.964193 -1.34961,0 -2.34574,-0.996354 l -5.62335,-5.624465 q -0.93188,-0.932034 -0.93188,-2.346204 z m 8.86881,-21.726499 q 0,-1.382009 0.96401,-2.281934 0.964,-0.8999 2.4743,-0.8999 h 5.78401 q 1.38173,0 2.34574,0.8999 0.99613,0.932059 0.99613,2.281934 0,1.478438 -0.96401,2.442631 -0.964,0.964193 -2.37786,0.964193 h -5.78401 q -1.5103,0 -2.4743,-0.964193 -0.96401,-0.932059 -0.96401,-2.442631 z"
       id="text16"
       style="font-size:25.4px;line-height:1.1;font-family:'Weather Icons';-inkscape-font-specification:'Weather Icons';display:inline;opacity:0.530973;fill:#ffff00;stroke:#000000;stroke-width:0.259117;stroke-linecap:round;stroke-linejoin:round;stroke-dashoffset:0.990634"
       aria-label=""
       inkscape:label="small_cloud_with_sun" />
  </g>
</svg>
