<?xml version="1.0" encoding="UTF-8" standalone="no"?>
<!-- Created with Inkscape (http://www.inkscape.org/) -->

<svg
   width="100mm"
   height="100mm"
   viewBox="0 0 100 100"
   version="1.1"
   id="svg1"
   inkscape:version="1.4 (86a8ad7, 2024-10-11)"
   sodipodi:docname="w_cloud_closed.svg"
   xmlns:inkscape="http://www.inkscape.org/namespaces/inkscape"
   xmlns:sodipodi="http://sodipodi.sourceforge.net/DTD/sodipodi-0.dtd"
   xmlns="http://www.w3.org/2000/svg"
   xmlns:svg="http://www.w3.org/2000/svg">
  <sodipodi:namedview
     id="namedview1"
     pagecolor="#ffffff"
     bordercolor="#000000"
     borderopacity="0.25"
     inkscape:showpageshadow="2"
     inkscape:pageopacity="0.0"
     inkscape:pagecheckerboard="0"
     inkscape:deskcolor="#d1d1d1"
     inkscape:document-units="mm"
     inkscape:zoom="0.72604515"
     inkscape:cx="196.26879"
     inkscape:cy="146.68509"
     inkscape:window-width="1920"
     inkscape:window-height="1017"
     inkscape:window-x="1912"
     inkscape:window-y="-8"
     inkscape:window-maximized="1"
     inkscape:current-layer="layer1" />
  <defs
     id="defs1" />
  <g
     inkscape:label="Ebene 1"
     inkscape:groupmode="layer"
     id="layer1">
    <path
       d="m 4.558799,41.231202 q 0,5.913726 3.695345,10.541856 3.69535,4.628134 9.38295,5.945866 1.60668,7.038616 7.23004,11.538189 5.62335,4.531711 12.8855,4.531711 7.10147,0 12.62844,-4.403153 5.55907,-4.403153 7.23003,-11.28107 h 1.12467 q 4.6272,0 8.54748,-2.249786 3.92029,-2.217648 6.20175,-6.106565 2.28149,-3.888915 2.28149,-8.517048 0,-4.531712 -2.18508,-8.388488 -2.15295,-3.856776 -5.94468,-6.202986 -3.75962,-2.31407 -8.25831,-2.442631 h -38.3673 q -6.87658,0.321415 -11.66444,5.238796 -4.787885,4.917392 -4.787885,11.795309 z m 5.848265,0 q 0,-4.467432 3.08483,-7.777832 3.11692,-3.278261 7.51923,-3.503238 h 38.3673 q 4.4023,0.224988 7.51923,3.503238 3.11695,3.3104 3.11695,7.777832 0,4.499575 -3.34187,7.777835 -3.34189,3.310399 -7.93696,3.310399 h -5.5591 q -0.57839,0 -0.57839,0.610655 l -0.25702,1.960528 q -0.5784,5.560188 -4.78789,9.320544 -4.20949,3.760357 -9.80068,3.760357 -5.62336,0 -9.80072,-3.760357 -4.1452,-3.760356 -4.69147,-9.320544 l -0.25702,-1.960528 q 0,-0.610655 -0.67481,-0.610655 h -1.79946 q -4.30588,-0.514239 -7.23004,-3.663937 -2.892,-3.149702 -2.892,-7.424297 z"
       id="text13"
       style="font-size:25.4px;line-height:1.1;font-family:'Weather Icons';-inkscape-font-specification:'Weather Icons';display:inline;opacity:0.530973;fill:#ffff00;stroke:#000000;stroke-width:0.259117;stroke-linecap:round;stroke-linejoin:round;stroke-dashoffset:0.990634"
       aria-label="ï"
       inkscape:label="cloud_closed" />
  </g>
</svg>
