<?xml version="1.0" encoding="UTF-8" standalone="no"?>
<!-- Created with Inkscape (http://www.inkscape.org/) -->

<svg
   width="100mm"
   height="100mm"
   viewBox="0 0 100 100"
   version="1.1"
   id="svg1"
   inkscape:version="1.4 (86a8ad7, 2024-10-11)"
   sodipodi:docname="w_cloud_sun_closed.svg"
   xmlns:inkscape="http://www.inkscape.org/namespaces/inkscape"
   xmlns:sodipodi="http://sodipodi.sourceforge.net/DTD/sodipodi-0.dtd"
   xmlns="http://www.w3.org/2000/svg"
   xmlns:svg="http://www.w3.org/2000/svg">
  <sodipodi:namedview
     id="namedview1"
     pagecolor="#ffffff"
     bordercolor="#000000"
     borderopacity="0.25"
     inkscape:showpageshadow="2"
     inkscape:pageopacity="0.0"
     inkscape:pagecheckerboard="0"
     inkscape:deskcolor="#d1d1d1"
     inkscape:document-units="mm"
     inkscape:zoom="0.72604515"
     inkscape:cx="196.26879"
     inkscape:cy="146.68509"
     inkscape:window-width="1920"
     inkscape:window-height="1017"
     inkscape:window-x="1912"
     inkscape:window-y="-8"
     inkscape:window-maximized="1"
     inkscape:current-layer="layer1" />
  <defs
     id="defs1" />
  <g
     inkscape:label="Ebene 1"
     inkscape:groupmode="layer"
     id="layer1">
    <path
       d="m 4.631119,41.164043 q 0,-4.628132 2.24933,-8.549188 2.281485,-3.921057 6.169625,-6.202981 3.88816,-2.249789 8.48323,-2.249789 h 37.11413 q 4.59509,0 8.51536,2.249789 3.92028,2.281924 6.20174,6.202981 2.28149,3.921056 2.28149,8.549188 0,3.40682 -1.44602,6.845777 3.92029,4.788834 3.92029,11.345354 0,3.663937 -1.41386,6.974335 -1.41389,3.342541 -3.82389,5.753027 -2.41001,2.410484 -5.75188,3.824638 -3.30974,1.414151 -6.97296,1.414151 -7.61561,0 -13.30325,-5.978005 -3.98454,2.249786 -9.25441,2.249786 -7.23003,0 -12.78913,-4.499572 -5.55907,-4.467433 -7.13362,-11.473911 -5.75189,-1.317732 -9.41508,-5.913724 Q 4.631119,47.109907 4.631119,41.164043 Z m 5.848295,0 q 0,4.306733 2.85988,7.424296 2.89201,3.11756 7.23,3.631796 l 1.70309,0.09643 q 0.64265,0 0.64265,0.610658 l 0.22489,1.864108 q 0.70694,5.560186 4.82002,9.288403 4.11308,3.760357 9.64005,3.760357 5.65547,0 9.83281,-3.760357 4.20949,-3.760356 4.72363,-9.288403 l 0.25702,-1.992667 q 0.12851,-0.578518 0.70693,-0.578518 h 5.52694 q 4.53082,0 7.80843,-3.27826 3.27761,-3.27826 3.27761,-7.777833 0,-4.660273 -3.27761,-7.970672 -3.24549,-3.278259 -7.80843,-3.278259 h -37.11413 q -4.49866,0 -7.77627,3.310398 -3.27761,3.342541 -3.27761,7.938533 z m 22.97539,42.071006 q 0,-1.253451 0.83547,-2.153367 l 2.24936,-2.185505 q 1.28532,-0.964196 2.18507,-0.867777 1.06039,0 1.89588,0.867777 0.83547,0.899912 0.83547,2.153366 0,1.253452 -0.89975,2.024806 l -2.02441,2.249787 q -0.93185,0.835635 -2.08867,0.835635 -1.2532,0 -2.1208,-0.867774 -0.86762,-0.835636 -0.86762,-2.056948 z M 51.770874,68.06506 q 3.56682,3.43896 8.38683,3.43896 5.07708,0 8.61176,-3.535379 3.56682,-3.535379 3.56682,-8.613467 0,-3.213983 -1.73522,-6.299404 -4.98067,4.917391 -11.95363,4.917391 h -1.09254 q -1.28533,5.592327 -5.78402,10.091899 z m 5.55907,18.094711 q 0,-1.317732 0.80334,-2.121226 0.80334,-0.803496 2.02442,-0.803496 1.31748,0 2.12082,0.803496 0.80331,0.803494 0.80331,2.121226 v 7.006478 q 0,1.221312 -0.83547,2.024808 -0.80334,0.803494 -2.08866,0.803494 -1.22108,0 -2.02442,-0.803494 -0.80334,-0.803496 -0.80334,-2.024808 z m 18.9266,-7.874252 q 0,-1.317732 0.77121,-2.121228 1.09254,-0.835635 2.12082,-0.835635 0.93185,0 2.02439,0.835635 l 4.91642,4.917391 q 0.83547,0.932055 0.83547,2.185506 0,1.221312 -0.83547,2.056948 -0.83547,0.835635 -2.02441,0.835635 -1.22108,0 -1.99226,-0.835635 l -5.04496,-4.917389 q -0.77121,-0.932054 -0.77121,-2.121228 z m 3.56681,-38.503489 q -0.83547,-0.835635 -0.83547,-2.056947 0,-1.221313 0.86762,-2.153368 l 2.21721,-2.153366 q 0.77118,-0.835636 1.99226,-0.835636 1.22107,0 2.02441,0.835636 0.83547,0.867776 0.83547,2.153366 0,1.157035 -0.83547,1.992671 l -2.2172,2.217644 q -0.83547,0.835635 -1.96014,0.835635 -1.22107,0 -2.08869,-0.835635 z m 5.04496,21.630091 q -0.8676,-0.867777 -0.8676,-2.056947 0,-1.189174 0.89972,-1.99267 0.8355,-0.835635 2.0887,-0.835635 h 7.00508 q 1.18892,0 1.96013,0.803496 0.80334,0.803496 0.80334,2.024809 0,1.221312 -0.80334,2.056947 -0.77121,0.867774 -1.96013,0.867774 h -7.00508 q -1.22108,0 -2.12082,-0.867774 z"
       id="text12"
       style="font-size:25.4px;line-height:1.1;font-family:'Weather Icons';-inkscape-font-specification:'Weather Icons';display:inline;opacity:0.530973;fill:#ffff00;stroke:#000000;stroke-width:0.259117;stroke-linecap:round;stroke-linejoin:round;stroke-dashoffset:0.990634"
       aria-label=""
       inkscape:label="cloud_closed_with_sun" />
  </g>
</svg>
