<?xml version="1.0" encoding="UTF-8" standalone="no"?>
<!-- Created with Inkscape (http://www.inkscape.org/) -->

<svg
   width="100mm"
   height="100mm"
   viewBox="0 0 100 100"
   version="1.1"
   id="svg1"
   inkscape:version="1.4 (86a8ad7, 2024-10-11)"
   sodipodi:docname="w_cloud_sun_open.svg"
   xmlns:inkscape="http://www.inkscape.org/namespaces/inkscape"
   xmlns:sodipodi="http://sodipodi.sourceforge.net/DTD/sodipodi-0.dtd"
   xmlns="http://www.w3.org/2000/svg"
   xmlns:svg="http://www.w3.org/2000/svg">
  <sodipodi:namedview
     id="namedview1"
     pagecolor="#ffffff"
     bordercolor="#000000"
     borderopacity="0.25"
     inkscape:showpageshadow="2"
     inkscape:pageopacity="0.0"
     inkscape:pagecheckerboard="0"
     inkscape:deskcolor="#d1d1d1"
     inkscape:document-units="mm"
     inkscape:zoom="0.72604515"
     inkscape:cx="196.26879"
     inkscape:cy="146.68509"
     inkscape:window-width="1920"
     inkscape:window-height="1017"
     inkscape:window-x="1912"
     inkscape:window-y="-8"
     inkscape:window-maximized="1"
     inkscape:current-layer="layer1" />
  <defs
     id="defs1" />
  <g
     inkscape:label="Ebene 1"
     inkscape:groupmode="layer"
     id="layer1">
    <path
       style="font-size:25.4px;line-height:1.1;font-family:'Weather Icons';-inkscape-font-specification:'Weather Icons';display:inline;opacity:0.530973;fill:#ffff00;stroke:#000000;stroke-width:0.259117;stroke-linecap:round;stroke-linejoin:round;stroke-dashoffset:0.990634"
       d="m 4.768505,41.075006 c 0,-2.95686 0.728359,-5.710172 2.185076,-8.25993 1.456713,-2.549756 3.438273,-4.595991 5.944683,-6.138703 2.52783,-1.54271 5.2806,-2.356919 8.2583,-2.442625 0.3856,0 0.5784,0.192828 0.5784,0.578516 v 4.563852 c 0,0.428533 -0.19279,0.642798 -0.5784,0.642798 -2.91343,0.149992 -5.40913,1.307023 -7.48709,3.471098 -2.05654,2.185506 -3.08481,4.713837 -3.08481,7.584994 0,2.828304 0.964,5.292355 2.892,7.392155 1.94943,2.099802 4.34873,3.321114 7.19789,3.663938 l 1.79948,0.192854 c 0.40702,0 0.61053,0.214259 0.61053,0.642794 l 0.25707,1.73555 c 0.36418,3.749643 1.9173,6.867204 4.65935,9.352684 2.76347,2.506904 6.01966,3.760356 9.76856,3.760356 3.72748,0 6.98367,-1.253452 9.76857,-3.760356 2.80632,-2.48548 4.39157,-5.570902 4.75575,-9.256265 l 0.25707,-1.992667 c 0,-0.385677 0.19279,-0.578515 0.5784,-0.578515 h 5.52696 c 3.08481,0 5.71975,-1.103468 7.90482,-3.310402 2.18507,-2.185506 3.27761,-4.799544 3.27761,-7.842113 0,-2.871157 -1.03898,-5.399488 -3.11694,-7.584994 -2.05654,-2.16408 -4.53082,-3.321112 -7.42283,-3.471098 -0.42844,0 -0.64266,-0.21426 -0.64266,-0.642798 v -4.563852 c 0,-0.385678 0.21421,-0.578516 0.64266,-0.578516 4.54153,0.149992 8.39754,1.864114 11.56804,5.142368 3.1705,3.278261 4.75575,7.177891 4.75575,11.69889 0,2.592611 -0.49271,4.917391 -1.47814,6.974338 2.69921,3.235408 4.04882,7.006478 4.04882,11.313213 0,3.213978 -0.80334,6.192268 -2.41001,8.934864 -1.60667,2.764025 -3.79175,4.94953 -6.55522,6.556521 -2.76348,1.60699 -5.75189,2.410486 -8.96523,2.410486 -5.26989,0 -9.69359,-1.981954 -13.27111,-5.945863 -2.7849,1.499857 -5.859,2.249785 -9.2223,2.249785 -4.82001,0 -9.09376,-1.499857 -12.82124,-4.499572 -3.72748,-2.978289 -6.11606,-6.792213 -7.16576,-11.441772 -3.83459,-0.942768 -6.96224,-2.946148 -9.38296,-6.010144 C 5.978873,48.552881 4.768513,45.03893 4.768513,41.075019 Z m 28.759429,42.006726 c 0,-0.835634 0.27849,-1.51057 0.83547,-2.024806 l 2.24934,-2.249786 c 0.55698,-0.55709 1.16751,-0.846348 1.8316,-0.867776 0.70694,-0.10713 1.40317,0.139263 2.08868,0.739216 0.68551,0.62137 1.02827,1.349872 1.02827,2.185507 0,0.835636 -0.27849,1.564136 -0.83547,2.185507 l -2.18508,2.089087 c -0.51413,0.578517 -1.17822,0.867775 -1.99227,0.867775 -0.85689,0 -1.57454,-0.289258 -2.15294,-0.867775 -0.5784,-0.557091 -0.8676,-1.24274 -0.8676,-2.056949 z m 18.28392,-15.009289 c 2.35646,2.271213 5.17349,3.406819 8.4511,3.406819 3.32046,0 6.15891,-1.189175 8.51536,-3.567518 2.35645,-2.378345 3.53468,-5.228076 3.53468,-8.549187 0,-2.142655 -0.5784,-4.242457 -1.73521,-6.299404 -3.27761,3.27826 -7.25144,4.917391 -11.9215,4.917391 h -1.09254 c -1.00685,4.006763 -2.92414,7.370729 -5.75189,10.091899 z m 5.49482,17.869733 c 0,-0.792782 0.2892,-1.457006 0.86761,-1.992667 0.5784,-0.535664 1.27462,-0.803496 2.08867,-0.803496 0.81405,0 1.48885,0.267832 2.02441,0.803496 0.53555,0.535661 0.80333,1.199885 0.80333,1.992667 v 7.006478 c 0,0.814208 -0.27849,1.51057 -0.83547,2.089086 -0.53555,0.578517 -1.19965,0.867775 -1.99227,0.867775 -0.79262,0 -1.48885,-0.299971 -2.08867,-0.899914 -0.57841,-0.578517 -0.86761,-1.264166 -0.86761,-2.056947 z m 18.89447,-7.777832 c 0,-0.792784 0.2892,-1.467719 0.8676,-2.024809 0.51413,-0.535661 1.14609,-0.835632 1.89587,-0.899913 0.7712,-0.04284 1.48885,0.257122 2.15294,0.899913 l 4.91642,4.917391 c 0.59982,0.599943 0.89973,1.296304 0.89973,2.089087 0,0.814209 -0.29991,1.51057 -0.89973,2.089088 -0.5784,0.578516 -1.26392,0.867774 -2.05654,0.867774 -0.74978,0 -1.41387,-0.289258 -1.99228,-0.867774 l -4.91641,-5.01381 c -0.5784,-0.535664 -0.8676,-1.221312 -0.8676,-2.056947 z m 2.76347,-40.431876 c 0,-0.857062 0.27849,-1.564138 0.83547,-2.121228 l 2.18507,-2.153366 c 0.83547,-0.557091 1.56383,-0.835636 2.18508,-0.835636 0.70693,0 1.33889,0.289258 1.89587,0.867774 0.5784,0.599945 0.8676,1.307019 0.8676,2.121228 0,0.771354 -0.29991,1.435578 -0.89973,1.992667 l -2.12081,2.217647 c -0.59982,0.55709 -1.29605,0.835635 -2.08867,0.835635 -0.79263,0 -1.46743,-0.289258 -2.02441,-0.867774 -0.55698,-0.55709 -0.83547,-1.242738 -0.83547,-2.056947 z m 4.94855,21.630089 c 0,-0.81421 0.29991,-1.489145 0.89974,-2.024809 0.5784,-0.621371 1.28533,-0.932055 2.1208,-0.932055 h 6.94084 c 0.79261,0 1.47812,0.289258 2.05654,0.867774 0.57839,0.578519 0.86759,1.27488 0.86759,2.08909 0,0.814209 -0.2892,1.499857 -0.86759,2.056947 -0.57842,0.578516 -1.26393,0.867774 -2.05654,0.867774 h -6.94084 c -0.81404,0 -1.52098,-0.289258 -2.1208,-0.867774 -0.59983,-0.578519 -0.89974,-1.264167 -0.89974,-2.056947 z"
       id="text2"
       inkscape:label="cloud_open_with_sun"
       aria-label=""
       sodipodi:nodetypes="ssccssccsccccccscccsscsccsscsscscsscsccsssscsccsccscscssscsccsssssscssssscccsscsccssccscsccscsscsssscssss" />
  </g>
</svg>
