<?xml version="1.0" encoding="UTF-8" standalone="no"?>
<!-- Created with Inkscape (http://www.inkscape.org/) -->

<svg
   width="100mm"
   height="100mm"
   viewBox="0 0 100 100"
   version="1.1"
   id="svg1"
   inkscape:version="1.4 (86a8ad7, 2024-10-11)"
   sodipodi:docname="w_rain_light.svg"
   xmlns:inkscape="http://www.inkscape.org/namespaces/inkscape"
   xmlns:sodipodi="http://sodipodi.sourceforge.net/DTD/sodipodi-0.dtd"
   xmlns="http://www.w3.org/2000/svg"
   xmlns:svg="http://www.w3.org/2000/svg">
  <sodipodi:namedview
     id="namedview1"
     pagecolor="#ffffff"
     bordercolor="#000000"
     borderopacity="0.25"
     inkscape:showpageshadow="2"
     inkscape:pageopacity="0.0"
     inkscape:pagecheckerboard="0"
     inkscape:deskcolor="#d1d1d1"
     inkscape:document-units="mm"
     inkscape:zoom="0.72604515"
     inkscape:cx="196.95745"
     inkscape:cy="145.30777"
     inkscape:window-width="1920"
     inkscape:window-height="1017"
     inkscape:window-x="1912"
     inkscape:window-y="-8"
     inkscape:window-maximized="1"
     inkscape:current-layer="layer1" />
  <defs
     id="defs1" />
  <g
     inkscape:label="Ebene 1"
     inkscape:groupmode="layer"
     id="layer1">
    <path
       d="m 23.421764,17.094343 c 0.29991,-0.728503 0.82476,-1.242738 1.57453,-1.542704 0.6641,-0.342828 1.37103,-0.364251 2.12081,-0.06427 0.74978,0.278545 1.26392,0.782068 1.54241,1.51057 0.34275,0.749942 0.36418,1.489165 0.0643,2.217669 -0.27849,0.728484 -0.78191,1.232009 -1.51027,1.51057 -0.68551,0.342812 -1.39245,0.364233 -2.1208,0.06427 -0.72836,-0.299965 -1.26392,-0.824911 -1.60668,-1.574837 -0.34275,-0.535667 -0.36418,-1.242747 -0.0643,-2.121241 z m 2.15294,9.706227 c 0,-0.514243 0.18209,-1.02848 0.54627,-1.542705 0.36418,-0.514243 0.88902,-0.878494 1.57453,-1.092754 0.87832,-0.342828 1.63881,-0.332117 2.28148,0.03213 0.66409,0.342828 1.12467,0.985624 1.38174,1.928387 l 3.02054,10.99181 c 0.23564,0.857055 0.13923,1.617699 -0.2892,2.281935 -0.40703,0.68564 -1.01756,1.114167 -1.83161,1.285582 -0.74978,0.235691 -1.46743,0.160721 -2.15294,-0.224936 -0.68551,-0.385675 -1.14609,-0.964186 -1.38174,-1.735532 l -3.02054,-11.023969 c 0,-0.06427 -0.0215,-0.203531 -0.0643,-0.417817 -0.0429,-0.214259 -0.0643,-0.374953 -0.0643,-0.482083 z m 6.39455,-19.1874664 c 0,-0.4285371 0.0643,-0.7606442 0.19279,-0.9963272 0.29991,-0.7499412 0.81405,-1.2641844 1.54241,-1.5427294 0.32133,-0.1713721 0.69622,-0.2570701 1.12467,-0.2570701 0.21421,0 0.55698,0.06427 1.02827,0.192802 0.7712,0.2785451 1.31747,0.7927783 1.6388,1.5427045 0.34276,0.7499262 0.34276,1.4998604 0,2.2498016 -0.34275,0.7499263 -0.85689,1.274872 -1.5424,1.574838 -0.66409,0.299965 -1.36032,0.299965 -2.08868,0 -0.66409,-0.278545 -1.14609,-0.6856487 -1.446,-1.2213149 -0.29991,-0.5356672 -0.44987,-1.0499003 -0.44987,-1.5427045 z m 2.53854,9.0955564 c 0,-1.307013 0.72836,-2.196211 2.18508,-2.667592 0.32133,-0.107104 0.58911,-0.160669 0.80333,-0.160669 0.3856,0 0.78192,0.09643 1.18894,0.289256 0.79262,0.278544 1.32818,0.932052 1.60667,1.96052 l 5.65549,20.987293 c 0.21421,0.814209 0.12853,1.553424 -0.25707,2.217641 -0.36418,0.664217 -0.93187,1.114177 -1.70308,1.349876 -0.79262,0.235691 -1.5424,0.160721 -2.24934,-0.224936 -0.68551,-0.385675 -1.13538,-0.964186 -1.3496,-1.735532 L 34.636324,17.57653 c -0.0857,-0.38569 -0.12853,-0.674956 -0.12853,-0.867792 z m 11.79297,1.414169 c 0,-0.428537 0.075,-0.782075 0.22495,-1.06062 0.27849,-0.685659 0.78191,-1.189181 1.51027,-1.51057 0.40702,-0.171371 0.80334,-0.25707 1.18894,-0.25707 0.21421,0 0.55698,0.06427 1.02827,0.192802 0.74978,0.299984 1.26391,0.803507 1.5424,1.51057 0.27849,0.749942 0.27849,1.478445 0,2.185509 -0.25707,0.685659 -0.72836,1.199902 -1.41387,1.54273 -0.74978,0.342812 -1.49956,0.374946 -2.24934,0.0964 -0.72836,-0.299966 -1.26391,-0.835624 -1.60667,-1.606971 -0.14996,-0.278561 -0.22495,-0.642812 -0.22495,-1.092755 z m 2.47428,8.774168 c 0,-0.557105 0.17139,-1.08206 0.51414,-1.574864 0.36417,-0.492805 0.88902,-0.846343 1.57453,-1.060621 0.57841,-0.06427 0.88903,-0.0964 0.93187,-0.0964 1.39245,0 2.27077,0.696361 2.63495,2.089082 l 2.9884,10.863248 c 0.21422,0.814209 0.12854,1.553424 -0.25707,2.217641 -0.36418,0.664217 -0.93187,1.114178 -1.70307,1.349876 -0.79263,0.235691 -1.5317,0.160721 -2.21721,-0.224936 -0.66409,-0.385675 -1.11396,-0.964186 -1.3496,-1.735532 l -3.02055,-10.895409 c -0.0643,-0.299965 -0.0964,-0.610644 -0.0964,-0.932033 z"
       id="text10"
       style="font-size:25.4px;line-height:1.1;font-family:'Weather Icons';-inkscape-font-specification:'Weather Icons';display:inline;opacity:0.530973;fill:#ffff00;stroke:#000000;stroke-width:0.259117;stroke-linecap:round;stroke-linejoin:round;stroke-dashoffset:0.990634"
       aria-label=""
       inkscape:label="rain_light"
       sodipodi:nodetypes="scccccscssssccccccsccssssccsccsccsssscsccccccccsssccsccccccsssccscccccccss" />
  </g>
</svg>
