<?xml version="1.0" encoding="UTF-8" standalone="no"?>
<!-- Created with Inkscape (http://www.inkscape.org/) -->

<svg
   width="100mm"
   height="100mm"
   viewBox="0 0 100 100"
   version="1.1"
   id="svg1"
   inkscape:version="1.4 (86a8ad7, 2024-10-11)"
   sodipodi:docname="w_sun_00.svg"
   xmlns:inkscape="http://www.inkscape.org/namespaces/inkscape"
   xmlns:sodipodi="http://sodipodi.sourceforge.net/DTD/sodipodi-0.dtd"
   xmlns="http://www.w3.org/2000/svg"
   xmlns:svg="http://www.w3.org/2000/svg">
  <sodipodi:namedview
     id="namedview1"
     pagecolor="#ffffff"
     bordercolor="#000000"
     borderopacity="0.25"
     inkscape:showpageshadow="2"
     inkscape:pageopacity="0.0"
     inkscape:pagecheckerboard="0"
     inkscape:deskcolor="#d1d1d1"
     inkscape:document-units="mm"
     inkscape:zoom="0.72604515"
     inkscape:cx="196.26879"
     inkscape:cy="146.68509"
     inkscape:window-width="1920"
     inkscape:window-height="1017"
     inkscape:window-x="1912"
     inkscape:window-y="-8"
     inkscape:window-maximized="1"
     inkscape:current-layer="layer1" />
  <defs
     id="defs1" />
  <g
     inkscape:label="Ebene 1"
     inkscape:groupmode="layer"
     id="layer1">
    <path
       d="m 10.926454,59.688525 q 0,1.253474 0.8676,2.12124 0.89975,0.835633 2.05654,0.835633 h 7.00509 q 1.18894,0 1.96015,-0.867766 0.80332,-0.867792 0.80332,-2.089107 0,-1.22129 -0.80332,-2.089082 -0.77121,-0.835632 -1.96015,-0.835632 h -7.00509 q -1.18895,0 -2.05654,0.867766 -0.8676,0.867792 -0.8676,2.056948 z m 9.80069,-23.751312 q 0,1.189182 0.80334,2.089082 l 5.04496,4.88526 q 0.77121,0.803498 2.02441,0.803498 1.22107,0 2.02438,-0.771365 0.8355,-0.771338 0.8355,-1.960519 0,-1.25345 -0.8355,-2.185509 l -4.88426,-4.88526 q -2.08867,-1.639106 -4.20949,0 -0.80334,0.867792 -0.80334,2.024813 z m 0,47.47049 q 0,1.189182 0.80334,2.089108 0.99613,0.835633 2.18508,0.835633 1.12466,0 2.02441,-0.835633 l 4.88426,-5.045956 q 0.8355,-0.771364 0.8355,-2.024813 0,-1.221316 -0.8355,-2.056948 -0.80331,-0.803498 -2.02438,-0.803498 -1.2532,0 -2.02441,0.835632 l -5.04496,4.88526 q -0.80334,0.867767 -0.80334,2.121215 z m 8.7403,-23.719178 q 0,4.788833 2.41002,8.902728 2.40999,4.146054 6.52307,6.556526 4.14521,2.410496 8.9331,2.410496 3.59896,0 6.9087,-1.446302 3.30974,-1.414143 5.68761,-3.824641 2.41002,-2.378338 3.82388,-5.688734 1.41386,-3.310395 1.41386,-6.910073 0,-4.820968 -2.40999,-8.934863 -2.37789,-4.113895 -6.49097,-6.524365 -4.11308,-2.378362 -8.93309,-2.378362 -4.82002,0 -8.9331,2.378362 -4.11308,2.41047 -6.52307,6.524365 -2.41002,4.113895 -2.41002,8.934863 z m 5.81614,0 q 0,-5.013796 3.50256,-8.581314 3.53468,-3.535384 8.54749,-3.535384 5.01282,0 8.54751,3.535384 3.56681,3.567518 3.56681,8.581314 0,4.949553 -3.56681,8.452778 -3.53469,3.50325 -8.54751,3.50325 -4.98068,0 -8.51536,-3.50325 -3.53469,-3.503225 -3.53469,-8.452778 z m 9.12591,-26.643892 q 0,1.221316 0.83547,2.056948 0.86759,0.835632 2.08867,0.835632 1.2532,0 2.08869,-0.835632 0.83547,-0.835632 0.83547,-2.056948 v -6.813646 q 0,-1.25345 -0.86762,-2.121216 -0.83547,-0.867766 -2.05654,-0.867766 -1.22108,0 -2.08867,0.867766 -0.83547,0.867766 -0.83547,2.121216 z m 0,53.127116 v 7.006475 q 0,1.189155 0.8676,2.056947 0.86762,0.867766 2.05654,0.867766 1.18894,0 2.05654,-0.867766 0.86762,-0.867792 0.86762,-2.056947 v -7.006475 q 0,-1.189182 -0.86762,-1.992681 -0.83547,-0.771365 -2.05654,-0.771365 -1.22108,0 -2.08867,0.771365 -0.83547,0.803499 -0.83547,1.992681 z m 18.9266,-45.18858 q 0,1.189181 0.77121,1.928386 0.77119,0.803498 1.928,0.803498 1.2532,0 2.05654,-0.803498 l 5.01281,-4.88526 q 0.83546,-0.8999 0.83546,-2.089082 0,-1.189155 -0.83546,-2.024813 -2.05654,-1.606972 -4.11308,0 l -4.88427,4.88526 q -0.77121,0.867766 -0.77121,2.185509 z m 0,37.442873 q 0,1.285582 0.77121,2.024813 l 4.88427,5.045956 q 0.89974,0.835633 2.02441,0.835633 1.22107,0 2.05654,-0.867792 0.86759,-0.867767 0.86759,-2.056949 0,-1.285582 -0.83546,-2.121215 l -5.01281,-4.88526 q -0.93187,-0.835632 -2.05654,-0.835632 -1.15681,0 -1.928,0.803498 -0.77121,0.835632 -0.77121,2.056948 z m 8.54748,-20.826599 q -0.80331,0.867792 -0.80331,2.089082 0,1.221315 0.83547,2.12124 0.83546,0.835633 1.96013,0.835633 h 6.94083 q 1.18892,0 2.05654,-0.899926 0.89972,-0.867766 0.89972,-2.056947 0,-1.189156 -0.89972,-2.056948 -0.86762,-0.867766 -2.05654,-0.867766 h -6.94083 q -1.18895,0 -1.99229,0.835632 z"
       id="text17"
       style="font-size:25.4px;line-height:1.1;font-family:'Weather Icons';-inkscape-font-specification:'Weather Icons';display:inline;opacity:0.530973;fill:#ffff00;stroke:#000000;stroke-width:0.259117;stroke-linecap:round;stroke-linejoin:round;stroke-dashoffset:0.990634"
       aria-label="ï€ "
       inkscape:label="sun" />
  </g>
</svg>
