<?xml version="1.0" encoding="UTF-8" standalone="no"?>
<svg
   class="MuiSvgIcon-root MuiSvgIcon-fontSizeMedium css-1phnduy"
   focusable="false"
   aria-hidden="true"
   viewBox="0 0 24 24"
   version="1.1"
   id="svg1"
   sodipodi:docname="icon.svg"
   inkscape:version="1.4 (86a8ad7, 2024-10-11)"
   xmlns:inkscape="http://www.inkscape.org/namespaces/inkscape"
   xmlns:sodipodi="http://sodipodi.sourceforge.net/DTD/sodipodi-0.dtd"
   xmlns="http://www.w3.org/2000/svg"
   xmlns:svg="http://www.w3.org/2000/svg">
  <defs
     id="defs1" />
  <sodipodi:namedview
     id="namedview1"
     pagecolor="#ffffff"
     bordercolor="#000000"
     borderopacity="0.25"
     inkscape:showpageshadow="2"
     inkscape:pageopacity="0.0"
     inkscape:pagecheckerboard="0"
     inkscape:deskcolor="#d1d1d1"
     inkscape:zoom="16.979167"
     inkscape:cx="7.8331288"
     inkscape:cy="11.749693"
     inkscape:window-width="1920"
     inkscape:window-height="1017"
     inkscape:window-x="-8"
     inkscape:window-y="-8"
     inkscape:window-maximized="1"
     inkscape:current-layer="svg1" />
  <path
     d="m 15.460407,18.471979 c -2.426923,1.242737 -4.869947,1.276404 -7.3305363,-0.0029 l 2.6333133,-4.48644 c 0.59868,0.355696 1.301288,0.358623 2.106359,0.0014 l 2.590864,4.487905 z M 11.761473,3.1214724 c 2.484009,0 4.732353,1.0070706 6.358596,2.6347777 1.627707,1.6277071 2.634778,3.8760506 2.634778,6.3585969 0,2.484009 -1.007071,4.732353 -2.634778,6.358596 -1.627707,1.627707 -3.876051,2.634778 -6.358596,2.634778 -2.4825465,0 -4.7323538,-1.007071 -6.3585971,-2.634778 C 3.7751688,16.8472 2.7680982,14.598856 2.7680982,12.114847 c 0,-2.4840101 1.0070706,-4.7323536 2.6347777,-6.3585969 C 7.0291192,4.128543 9.2774627,3.1214724 11.761473,3.1214724 Z m 5.868235,3.1251391 C 16.127885,4.7447882 14.053729,3.8152971 11.761473,3.8152971 c -2.2922569,0 -4.3664124,0.9294911 -5.8682357,2.4313144 C 4.391414,7.7484348 3.461923,9.8225903 3.461923,12.114847 c 0,2.292256 0.929491,4.366412 2.4313143,5.868235 1.5018233,1.501823 3.5759788,2.431314 5.8682357,2.431314 2.292256,0 4.366412,-0.929491 5.868235,-2.431314 1.501823,-1.501823 2.431314,-3.575979 2.431314,-5.868235 0,-2.2922567 -0.929491,-4.3664122 -2.431314,-5.8682355 z M 15.42235,5.7167284 c 2.289329,1.4798668 3.540848,3.5789063 3.66234,6.3498136 l -5.203685,-0.0366 c 0.0088,-0.696753 -0.339594,-1.305679 -1.050984,-1.823852 z m -3.652095,5.0763386 c 0.780187,0 1.412534,0.632346 1.412534,1.412533 0,0.780187 -0.632347,1.412534 -1.412534,1.412534 -0.780188,0 -1.412534,-0.632347 -1.412534,-1.412534 0,-0.780187 0.632346,-1.412533 1.412534,-1.412533 z M 4.4558197,12.098745 C 4.5919498,9.3761419 5.7849186,7.2434357 8.1240157,5.7518588 l 2.5703713,4.5244992 c -0.607462,0.341057 -0.9602294,0.947056 -1.0539104,1.822387 z"
     id="path1"
     style="stroke-width:0.146377" />
</svg>
