<?xml version="1.0" encoding="UTF-8" standalone="no"?>
<!-- Created with Inkscape (http://www.inkscape.org/) -->

<svg
   width="100mm"
   height="100mm"
   viewBox="0 0 100 100"
   version="1.1"
   id="svg1"
   inkscape:version="1.4 (86a8ad7, 2024-10-11)"
   sodipodi:docname="symbols.svg"
   xmlns:inkscape="http://www.inkscape.org/namespaces/inkscape"
   xmlns:sodipodi="http://sodipodi.sourceforge.net/DTD/sodipodi-0.dtd"
   xmlns="http://www.w3.org/2000/svg"
   xmlns:svg="http://www.w3.org/2000/svg">
  <sodipodi:namedview
     id="namedview1"
     pagecolor="#ffffff"
     bordercolor="#000000"
     borderopacity="0.25"
     inkscape:showpageshadow="2"
     inkscape:pageopacity="0.0"
     inkscape:pagecheckerboard="0"
     inkscape:deskcolor="#d1d1d1"
     inkscape:document-units="mm"
     inkscape:zoom="0.72604515"
     inkscape:cx="196.26879"
     inkscape:cy="146.68509"
     inkscape:window-width="1920"
     inkscape:window-height="1017"
     inkscape:window-x="1912"
     inkscape:window-y="-8"
     inkscape:window-maximized="1"
     inkscape:current-layer="layer1" />
  <defs
     id="defs1" />
  <g
     inkscape:label="Ebene 1"
     inkscape:groupmode="layer"
     id="layer1">
    <path
       style="font-size:25.4px;line-height:1.1;font-family:'Weather Icons';-inkscape-font-specification:'Weather Icons';display:inline;opacity:0.530973;fill:#ffff00;stroke:#000000;stroke-width:0.259117;stroke-linecap:round;stroke-linejoin:round;stroke-dashoffset:0.990634"
       d="m 4.768505,41.075006 c 0,-2.95686 0.728359,-5.710172 2.185076,-8.25993 1.456713,-2.549756 3.438273,-4.595991 5.944683,-6.138703 2.52783,-1.54271 5.2806,-2.356919 8.2583,-2.442625 0.3856,0 0.5784,0.192828 0.5784,0.578516 v 4.563852 c 0,0.428533 -0.19279,0.642798 -0.5784,0.642798 -2.91343,0.149992 -5.40913,1.307023 -7.48709,3.471098 -2.05654,2.185506 -3.08481,4.713837 -3.08481,7.584994 0,2.828304 0.964,5.292355 2.892,7.392155 1.94943,2.099802 4.34873,3.321114 7.19789,3.663938 l 1.79948,0.192854 c 0.40702,0 0.61053,0.214259 0.61053,0.642794 l 0.25707,1.73555 c 0.36418,3.749643 1.9173,6.867204 4.65935,9.352684 2.76347,2.506904 6.01966,3.760356 9.76856,3.760356 3.72748,0 6.98367,-1.253452 9.76857,-3.760356 2.80632,-2.48548 4.39157,-5.570902 4.75575,-9.256265 l 0.25707,-1.992667 c 0,-0.385677 0.19279,-0.578515 0.5784,-0.578515 h 5.52696 c 3.08481,0 5.71975,-1.103468 7.90482,-3.310402 2.18507,-2.185506 3.27761,-4.799544 3.27761,-7.842113 0,-2.871157 -1.03898,-5.399488 -3.11694,-7.584994 -2.05654,-2.16408 -4.53082,-3.321112 -7.42283,-3.471098 -0.42844,0 -0.64266,-0.21426 -0.64266,-0.642798 v -4.563852 c 0,-0.385678 0.21421,-0.578516 0.64266,-0.578516 4.54153,0.149992 8.39754,1.864114 11.56804,5.142368 3.1705,3.278261 4.75575,7.177891 4.75575,11.69889 0,2.592611 -0.49271,4.917391 -1.47814,6.974338 2.69921,3.235408 4.04882,7.006478 4.04882,11.313213 0,3.213978 -0.80334,6.192268 -2.41001,8.934864 -1.60667,2.764025 -3.79175,4.94953 -6.55522,6.556521 -2.76348,1.60699 -5.75189,2.410486 -8.96523,2.410486 -5.26989,0 -9.69359,-1.981954 -13.27111,-5.945863 -2.7849,1.499857 -5.859,2.249785 -9.2223,2.249785 -4.82001,0 -9.09376,-1.499857 -12.82124,-4.499572 -3.72748,-2.978289 -6.11606,-6.792213 -7.16576,-11.441772 -3.83459,-0.942768 -6.96224,-2.946148 -9.38296,-6.010144 C 5.978873,48.552881 4.768513,45.03893 4.768513,41.075019 Z m 28.759429,42.006726 c 0,-0.835634 0.27849,-1.51057 0.83547,-2.024806 l 2.24934,-2.249786 c 0.55698,-0.55709 1.16751,-0.846348 1.8316,-0.867776 0.70694,-0.10713 1.40317,0.139263 2.08868,0.739216 0.68551,0.62137 1.02827,1.349872 1.02827,2.185507 0,0.835636 -0.27849,1.564136 -0.83547,2.185507 l -2.18508,2.089087 c -0.51413,0.578517 -1.17822,0.867775 -1.99227,0.867775 -0.85689,0 -1.57454,-0.289258 -2.15294,-0.867775 -0.5784,-0.557091 -0.8676,-1.24274 -0.8676,-2.056949 z m 18.28392,-15.009289 c 2.35646,2.271213 5.17349,3.406819 8.4511,3.406819 3.32046,0 6.15891,-1.189175 8.51536,-3.567518 2.35645,-2.378345 3.53468,-5.228076 3.53468,-8.549187 0,-2.142655 -0.5784,-4.242457 -1.73521,-6.299404 -3.27761,3.27826 -7.25144,4.917391 -11.9215,4.917391 h -1.09254 c -1.00685,4.006763 -2.92414,7.370729 -5.75189,10.091899 z m 5.49482,17.869733 c 0,-0.792782 0.2892,-1.457006 0.86761,-1.992667 0.5784,-0.535664 1.27462,-0.803496 2.08867,-0.803496 0.81405,0 1.48885,0.267832 2.02441,0.803496 0.53555,0.535661 0.80333,1.199885 0.80333,1.992667 v 7.006478 c 0,0.814208 -0.27849,1.51057 -0.83547,2.089086 -0.53555,0.578517 -1.19965,0.867775 -1.99227,0.867775 -0.79262,0 -1.48885,-0.299971 -2.08867,-0.899914 -0.57841,-0.578517 -0.86761,-1.264166 -0.86761,-2.056947 z m 18.89447,-7.777832 c 0,-0.792784 0.2892,-1.467719 0.8676,-2.024809 0.51413,-0.535661 1.14609,-0.835632 1.89587,-0.899913 0.7712,-0.04284 1.48885,0.257122 2.15294,0.899913 l 4.91642,4.917391 c 0.59982,0.599943 0.89973,1.296304 0.89973,2.089087 0,0.814209 -0.29991,1.51057 -0.89973,2.089088 -0.5784,0.578516 -1.26392,0.867774 -2.05654,0.867774 -0.74978,0 -1.41387,-0.289258 -1.99228,-0.867774 l -4.91641,-5.01381 c -0.5784,-0.535664 -0.8676,-1.221312 -0.8676,-2.056947 z m 2.76347,-40.431876 c 0,-0.857062 0.27849,-1.564138 0.83547,-2.121228 l 2.18507,-2.153366 c 0.83547,-0.557091 1.56383,-0.835636 2.18508,-0.835636 0.70693,0 1.33889,0.289258 1.89587,0.867774 0.5784,0.599945 0.8676,1.307019 0.8676,2.121228 0,0.771354 -0.29991,1.435578 -0.89973,1.992667 l -2.12081,2.217647 c -0.59982,0.55709 -1.29605,0.835635 -2.08867,0.835635 -0.79263,0 -1.46743,-0.289258 -2.02441,-0.867774 -0.55698,-0.55709 -0.83547,-1.242738 -0.83547,-2.056947 z m 4.94855,21.630089 c 0,-0.81421 0.29991,-1.489145 0.89974,-2.024809 0.5784,-0.621371 1.28533,-0.932055 2.1208,-0.932055 h 6.94084 c 0.79261,0 1.47812,0.289258 2.05654,0.867774 0.57839,0.578519 0.86759,1.27488 0.86759,2.08909 0,0.814209 -0.2892,1.499857 -0.86759,2.056947 -0.57842,0.578516 -1.26393,0.867774 -2.05654,0.867774 h -6.94084 c -0.81404,0 -1.52098,-0.289258 -2.1208,-0.867774 -0.59983,-0.578519 -0.89974,-1.264167 -0.89974,-2.056947 z"
       id="text2"
       inkscape:label="cloud_open_with_sun"
       aria-label=""
       sodipodi:nodetypes="ssccssccsccccccscccsscsccsscsscscsscsccsssscsccsccscscssscsccsssssscssssscccsscsccssccscsccscsscsssscssss" />
    <path
       d="m 4.50497,41.074156 c 0,-4.542428 1.59596,-8.463484 4.787884,-11.76317 3.19192,-3.299685 7.08007,-5.024521 11.66444,-5.174507 0.40702,0 0.61053,0.192828 0.61053,0.578515 v 4.595992 c 0,0.385681 -0.20351,0.578519 -0.61053,0.578519 -2.91343,0.149992 -5.40913,1.317737 -7.48709,3.503238 -2.07797,2.206934 -3.11695,4.767404 -3.11695,7.681413 0,2.914008 0.96401,5.431627 2.89201,7.552855 1.94943,2.121227 4.35944,3.299686 7.23003,3.535379 l 1.8316,0.257122 c 0.44987,0 0.6748,0.192828 0.6748,0.578516 l 0.22495,1.767689 c 0.36418,3.749644 1.92801,6.88863 4.69148,9.416961 2.7849,2.528332 6.06251,3.792499 9.83283,3.792499 3.72748,0 6.99438,-1.264167 9.8007,-3.792499 2.80632,-2.506905 4.40228,-5.613753 4.78788,-9.320542 l 0.25708,-1.960528 c 0,-0.407105 0.19278,-0.610657 0.5784,-0.610657 h 5.55908 c 3.10624,0 5.7626,-1.103468 7.9691,-3.310399 2.22791,-2.206935 3.34187,-4.842399 3.34187,-7.906393 0,-2.914009 -1.03898,-5.47448 -3.11694,-7.681413 -2.07796,-2.185506 -4.57366,-3.353254 -7.48709,-3.503238 -0.47129,0 -0.70694,-0.192828 -0.70694,-0.578519 v -4.595992 c 0,-0.385677 0.23565,-0.578516 0.70694,-0.578516 2.99912,0.0857 5.75188,0.899915 8.25829,2.442625 2.50641,1.542712 4.47726,3.59966 5.91256,6.170842 1.45671,2.571184 2.18507,5.345922 2.18507,8.324211 0,3.128272 -0.73907,5.96729 -2.21721,8.517048 2.52783,2.271215 4.26304,5.217362 5.20562,8.838447 l 0.5784,2.474764 c 0.0428,0.04286 0.0643,0.128561 0.0643,0.257122 0,0.257122 -0.18209,0.439245 -0.54627,0.546377 l -2.0887,0.578511 c -1.49956,0.449957 -2.83845,1.103467 -4.01668,1.960528 -1.15681,0.857061 -2.07796,1.810544 -2.76348,2.860444 -0.66409,1.071326 -1.16751,2.153367 -1.51027,3.246119 -0.32133,1.11418 -0.482,2.206934 -0.482,3.278259 0,0.921342 0.11781,1.906965 0.35347,2.956865 l 0.3856,2.121228 c 0.0857,0.321397 -0.075,0.578516 -0.482,0.771355 l -2.73134,0.835634 c -1.49956,0.364252 -2.92415,0.546377 -4.27375,0.546377 -1.26392,0 -2.54925,-0.149992 -3.85601,-0.449957 -1.30676,-0.299971 -2.65637,-0.771355 -4.04882,-1.414151 -1.39244,-0.642796 -2.74205,-1.564139 -4.04881,-2.764025 -1.30676,-1.17846 -2.44214,-2.571187 -3.40614,-4.178176 -2.76348,1.135608 -5.48411,1.703411 -8.1619,1.703411 -4.84144,0 -9.14732,-1.51057 -12.91764,-4.531714 -3.7489,-2.999715 -6.15891,-6.845778 -7.23002,-11.538189 -3.85602,-0.964196 -7.00509,-2.978289 -9.44724,-6.042285 C 5.71535,48.584157 4.50499,45.059493 4.50499,41.074156 Z m 46.304284,27.96163 c 1.07112,1.86411 2.54926,3.299687 4.43442,4.306734 1.90658,1.028475 3.86672,1.56414 5.88042,1.606992 0.51413,0 0.88902,-0.02151 1.12467,-0.06427 v -1.060617 c 0,-3.321111 0.88902,-6.4601 2.66707,-9.416961 1.79947,-2.935434 4.28446,-5.174507 7.45496,-6.71722 -0.53556,-1.242738 -1.40316,-2.464051 -2.60281,-3.663937 -3.04197,2.699744 -6.7266,4.049615 -11.0539,4.049615 h -1.06041 c -0.94258,4.221029 -3.22405,7.874253 -6.84442,10.959675 z"
       id="text3"
       style="font-size:25.4px;line-height:1.1;font-family:'Weather Icons';-inkscape-font-specification:'Weather Icons';display:inline;opacity:0.530973;fill:#ffff00;stroke:#000000;stroke-width:0.259117;stroke-linecap:round;stroke-linejoin:round;stroke-dashoffset:0.990634"
       inkscape:label="cloud_open_with_moon"
       aria-label=""
       sodipodi:nodetypes="sscssccsccccccscccsscsccsscscscccscccccsccccsssccscccsscccscccscss" />
    <path
       d="m 4.621577,41.040027 c 0,3.963911 1.21036,7.477862 3.631077,10.541856 2.44214,3.085422 5.58051,5.099518 9.4151,6.042285 1.07111,4.670985 3.47041,8.506335 7.19789,11.50605 3.7489,2.999715 8.04407,4.499572 12.88551,4.499572 4.7129,0 8.91167,-1.467718 12.59631,-4.403153 3.70605,-2.914008 6.11606,-6.663655 7.23002,-11.248933 h 1.09254 c 3.06339,0 5.90184,-0.760642 8.51536,-2.281925 2.61352,-1.499858 4.68077,-3.556805 6.20175,-6.170843 1.52098,-2.592609 2.28148,-5.420914 2.28148,-8.484909 0,-4.542425 -1.58525,-8.452768 -4.75575,-11.731029 -3.1705,-3.278259 -7.02651,-4.992384 -11.56804,-5.142368 -0.44987,0 -0.6748,0.192828 -0.6748,0.578516 v 4.563852 c 0,0.407107 0.22494,0.610659 0.6748,0.610659 2.91343,0.149992 5.39842,1.307023 7.45496,3.471099 2.07796,2.185505 3.11694,4.735262 3.11694,7.649271 0,3.042569 -1.10325,5.66732 -3.30974,7.874254 -2.2065,2.206932 -4.85215,3.310399 -7.93696,3.310399 h -5.52695 c -0.40703,0 -0.61054,0.192829 -0.61054,0.578516 l -0.25707,1.992667 c -0.38561,3.706792 -1.98157,6.813639 -4.78789,9.320545 -2.78489,2.506904 -6.03037,3.760357 -9.73643,3.760357 -3.77032,0 -7.04793,-1.264165 -9.83283,-3.792496 -2.76347,-2.528332 -4.3273,-5.667321 -4.69148,-9.416964 l -0.19279,-1.703409 c 0,-0.428532 -0.22494,-0.642796 -0.6748,-0.642796 l -1.79948,-0.224988 c -2.84916,-0.235691 -5.24846,-1.424867 -7.19789,-3.567521 -1.928,-2.121228 -2.892,-4.617418 -2.892,-7.488574 0,-2.914009 1.02827,-5.463767 3.08481,-7.649272 2.07796,-2.16408 4.57365,-3.321114 7.48709,-3.471099 0.3856,0 0.5784,-0.203556 0.5784,-0.610658 v -4.563853 c 0,-0.385677 -0.19279,-0.578515 -0.5784,-0.578515 -4.58437,0.149991 -8.47252,1.864114 -11.66444,5.142368 -3.170503,3.27826 -4.755752,7.188604 -4.755752,11.731029 z"
       id="text4"
       style="font-size:25.4px;line-height:1.1;font-family:'Weather Icons';-inkscape-font-specification:'Weather Icons';display:inline;opacity:0.530973;fill:#ffff00;stroke:#000000;stroke-width:0.259117;stroke-linecap:round;stroke-linejoin:round;stroke-dashoffset:0.990634"
       inkscape:label="cloud_open"
       aria-label=""
       sodipodi:nodetypes="scccsccsccsscssccsssscccsccccccsccssccss" />
    <path
       d="m 30.281534,2.6272213 h 1.02827 l 18.21966,26.9010177 c 0.12853,0.149992 0.14996,0.299979 0.0643,0.449958 -0.0643,0.171423 -0.21421,0.257122 -0.44986,0.257122 h -7.4871 l 7.8727,14.430772 c 0.25707,0.492809 0.0964,0.739215 -0.482,0.739215 h -10.0899 c -0.27849,0 -0.52485,-0.160694 -0.73907,-0.482096 l -7.39069,-19.605283 c -0.0857,-0.471384 0.075,-0.707077 0.482,-0.707077 h 7.42282 z"
       id="text5"
       style="font-size:25.4px;line-height:1.1;font-family:'Weather Icons';-inkscape-font-specification:'Weather Icons';display:inline;opacity:0.530973;fill:#ffff00;stroke:#000000;stroke-width:0.259117;stroke-linecap:round;stroke-linejoin:round;stroke-dashoffset:0.990634"
       aria-label=""
       inkscape:label="lightning"
       sodipodi:nodetypes="ccccsccssccscc" />
    <path
       d="m 22.954884,18.378108 c 0,0.149966 0.0429,0.374937 0.12854,0.674939 l 5.59121,19.765976 c 0.21422,0.664217 0.57841,1.167743 1.09254,1.510571 0.53556,0.342812 1.07112,0.514218 1.60667,0.514218 0.23565,0 0.51414,-0.03213 0.83547,-0.0964 0.81405,-0.149967 1.42458,-0.567776 1.83161,-1.25345 0.42844,-0.685658 0.52485,-1.446302 0.2892,-2.281935 l -5.59122,-19.637416 c -0.42844,-1.457006 -1.37103,-2.185508 -2.82774,-2.185508 -0.12854,0 -0.25707,0.02151 -0.3856,0.06427 -0.19279,0.06427 -0.31063,0.0964 -0.35347,0.0964 -0.74978,0.21426 -1.30676,0.599934 -1.67094,1.157022 -0.36418,0.535666 -0.54627,1.092761 -0.54627,1.67129 z m 8.99736,-9.641959 8.3547,30.082874 c 0.14996,0.664217 0.49272,1.167743 1.02827,1.510571 0.53555,0.342812 1.09253,0.514218 1.67094,0.514218 0.29991,0 0.61053,-0.03213 0.93187,-0.0964 0.74977,-0.214287 1.30675,-0.664236 1.67093,-1.349877 0.36418,-0.664217 0.43916,-1.392719 0.22495,-2.185508 L 37.511344,7.0970185 c -0.12854,-0.5785101 -0.46058,-1.0713153 -0.99614,-1.4784104 -0.53556,-0.4071141 -1.11396,-0.6106702 -1.7352,-0.6106702 -0.32134,0 -0.61054,0.05357 -0.86761,0.1606681 -0.68551,0.171372 -1.27462,0.6213402 -1.76734,1.3498764 -0.3856,0.5999491 -0.44986,1.3391653 -0.19279,2.2176416 z m 14.13872,9.545532 c 0,0.128535 0.0429,0.385658 0.12853,0.771366 l 5.59122,19.765976 c 0.19279,0.664217 0.53556,1.167743 1.02827,1.510571 0.51413,0.342812 1.04969,0.514218 1.60667,0.514218 0.27849,0 0.5784,-0.03213 0.89974,-0.0964 0.70693,-0.19283 1.23178,-0.546378 1.57454,-1.060622 0.36418,-0.514243 0.54627,-1.049909 0.54627,-1.606997 0,-0.107103 -0.0215,-0.267806 -0.0643,-0.482083 -0.0428,-0.192828 -0.0643,-0.321397 -0.0643,-0.385683 l -5.59122,-19.637416 c -0.12853,-0.664217 -0.44986,-1.189174 -0.964,-1.574864 -0.51413,-0.407095 -1.09253,-0.610644 -1.7352,-0.610644 l -0.83547,0.160668 c -0.68552,0.192829 -1.21036,0.567801 -1.57454,1.124888 -0.36418,0.535667 -0.54627,1.071331 -0.54627,1.606997 z"
       id="text7"
       style="font-size:25.4px;line-height:1.1;font-family:'Weather Icons';-inkscape-font-specification:'Weather Icons';display:inline;opacity:0.530973;fill:#ffff00;stroke:#000000;stroke-width:0.259117;stroke-linecap:round;stroke-linejoin:round;stroke-dashoffset:0.990634"
       aria-label=""
       inkscape:label="rain_medium"
       sodipodi:nodetypes="scccsccccssccssccssccccssccscscccsccscccccccss" />
    <path
       d="m 23.098584,17.822451 c 0,0.107104 0.0215,0.257096 0.0643,0.44995 0.0428,0.192828 0.0643,0.321398 0.0643,0.385684 l 0.93187,3.535383 c 0.23564,0.771348 0.68552,1.360579 1.34961,1.767693 0.6855,0.385674 1.42457,0.460652 2.2172,0.224936 0.7712,-0.235691 1.36031,-0.685633 1.76734,-1.34985 0.40702,-0.685659 0.49269,-1.42488 0.25702,-2.217668 l -0.83547,-3.471091 c -0.44986,-1.49985 -1.31747,-2.249776 -2.6028,-2.249776 -0.0857,0 -0.19279,0.01063 -0.32135,0.03213 -0.10709,0 -0.23562,0.01063 -0.38558,0.03213 -0.12851,0.02151 -0.23562,0.03213 -0.32136,0.03213 -0.72835,0.214285 -1.27462,0.61067 -1.6388,1.189181 -0.36418,0.557087 -0.54627,1.103464 -0.54627,1.63913 z m 4.53081,16.519875 c 0,0.0857 0.0106,0.214233 0.0321,0.385656 0.0428,0.171371 0.0643,0.278519 0.0643,0.321415 l 1.02829,3.599652 c 0.21422,0.664217 0.57839,1.167742 1.09254,1.51057 0.51412,0.364251 1.04967,0.546377 1.60665,0.546377 0.0857,0 0.17134,-0.01063 0.25702,-0.03213 0.10708,0 0.21422,-0.01063 0.32135,-0.03213 0.12851,-0.02151 0.22492,-0.03213 0.2892,-0.03213 0.77119,-0.235691 1.34959,-0.696351 1.73519,-1.382009 0.40703,-0.664217 0.4927,-1.39272 0.25702,-2.185508 l -0.83547,-3.438957 c -0.23565,-0.942763 -0.69621,-1.617701 -1.38174,-2.024815 -0.6855,-0.385674 -1.42457,-0.407095 -2.2172,-0.06427 -0.74978,0.214259 -1.31746,0.599934 -1.70306,1.157021 -0.36418,0.557088 -0.54627,1.114186 -0.54627,1.671292 z m 4.20949,-27.2545625 c 0,0.107104 0.0215,0.2570961 0.0643,0.4499501 0.0428,0.1713721 0.0643,0.2999401 0.0643,0.3856831 l 0.99613,3.4068233 c 0.21424,0.814209 0.6641,1.435574 1.3496,1.864093 0.70694,0.407114 1.45672,0.492804 2.24934,0.25707 0.77121,-0.235691 1.34961,-0.696351 1.73521,-1.382009 0.3856,-0.70708 0.46056,-1.457007 0.22489,-2.2497767 l -0.86759,-3.567518 c -0.36418,-1.3927374 -1.27463,-2.0891066 -2.73135,-2.0891066 -0.17133,0 -0.44983,0.04284 -0.83546,0.1285351 -0.74978,0.128534 -1.31748,0.4820751 -1.70309,1.0606202 -0.36418,0.5570872 -0.54627,1.1356083 -0.54627,1.7355585 z m 4.59507,16.3591535 c 0,0.192829 0.0428,0.482092 0.12851,0.867766 l 0.93188,3.535385 c 0.23564,0.771365 0.69623,1.349883 1.38173,1.735558 0.70694,0.407096 1.45673,0.492787 2.24936,0.25707 0.77119,-0.214286 1.34959,-0.664236 1.73519,-1.349876 0.38561,-0.664217 0.44986,-1.403433 0.19276,-2.217642 l -0.83547,-3.406823 c -0.42843,-1.542713 -1.25319,-2.31407 -2.47427,-2.31407 -0.14994,0 -0.50339,0.06427 -1.06039,0.192803 -0.74979,0.149966 -1.31748,0.492786 -1.70308,1.028486 -0.36418,0.514244 -0.54627,1.071332 -0.54627,1.671266 z m 9.67218,-5.753026 c 0,0.23569 0.0321,0.514243 0.0964,0.835632 l 0.964,3.406823 c 0.23564,0.81421 0.69623,1.435583 1.38174,1.86412 0.70694,0.407096 1.43529,0.503515 2.18507,0.289255 0.79263,-0.23569 1.39246,-0.696368 1.79947,-1.382009 0.42845,-0.70708 0.53556,-1.435583 0.32133,-2.185509 l -0.99613,-3.631811 c -0.34276,-1.39272 -1.2425,-2.089082 -2.69919,-2.089082 -0.32135,0 -0.62126,0.03213 -0.89975,0.0964 -0.68553,0.128535 -1.21038,0.482066 -1.57455,1.060595 -0.36418,0.557105 -0.55698,1.135624 -0.5784,1.735558 z m 4.7236,16.32702 c 0,0.107104 0.0536,0.407087 0.16064,0.899925 l 1.02828,3.535385 c 0.12851,0.728502 0.46056,1.264159 0.99613,1.606971 0.53556,0.364251 1.09254,0.524954 1.67093,0.48211 0.14994,0.02151 0.42843,-0.01063 0.8355,-0.0964 0.74978,-0.171371 1.33888,-0.610626 1.76731,-1.317741 0.40704,-0.578511 0.49271,-1.317724 0.25702,-2.217643 l -0.83546,-3.535357 c -0.44987,-1.478446 -1.31748,-2.217669 -2.60281,-2.217669 -0.21422,0 -0.59982,0.06427 -1.1568,0.192802 -0.70693,0.21426 -1.2425,0.56779 -1.60667,1.060595 -0.34275,0.514243 -0.51412,1.049911 -0.51412,1.606998 z"
       id="text8"
       style="font-size:25.4px;line-height:1.1;font-family:'Weather Icons';-inkscape-font-specification:'Weather Icons';display:inline;opacity:0.530973;fill:#ffff00;stroke:#000000;stroke-width:0.259117;stroke-linecap:round;stroke-linejoin:round;stroke-dashoffset:0.990634"
       aria-label=""
       inkscape:label="drizzle_medium"
       sodipodi:nodetypes="cscccccccscccccccccccsccccccccccccccccccccsccccccccccccsccccscccccccsccsscccccccccscccc" />
    <path
       d="m 23.421764,17.094343 c 0.29991,-0.728503 0.82476,-1.242738 1.57453,-1.542704 0.6641,-0.342828 1.37103,-0.364251 2.12081,-0.06427 0.74978,0.278545 1.26392,0.782068 1.54241,1.51057 0.34275,0.749942 0.36418,1.489165 0.0643,2.217669 -0.27849,0.728484 -0.78191,1.232009 -1.51027,1.51057 -0.68551,0.342812 -1.39245,0.364233 -2.1208,0.06427 -0.72836,-0.299965 -1.26392,-0.824911 -1.60668,-1.574837 -0.34275,-0.535667 -0.36418,-1.242747 -0.0643,-2.121241 z m 2.15294,9.706227 c 0,-0.514243 0.18209,-1.02848 0.54627,-1.542705 0.36418,-0.514243 0.88902,-0.878494 1.57453,-1.092754 0.87832,-0.342828 1.63881,-0.332117 2.28148,0.03213 0.66409,0.342828 1.12467,0.985624 1.38174,1.928387 l 3.02054,10.99181 c 0.23564,0.857055 0.13923,1.617699 -0.2892,2.281935 -0.40703,0.68564 -1.01756,1.114167 -1.83161,1.285582 -0.74978,0.235691 -1.46743,0.160721 -2.15294,-0.224936 -0.68551,-0.385675 -1.14609,-0.964186 -1.38174,-1.735532 l -3.02054,-11.023969 c 0,-0.06427 -0.0215,-0.203531 -0.0643,-0.417817 -0.0429,-0.214259 -0.0643,-0.374953 -0.0643,-0.482083 z m 6.39455,-19.1874664 c 0,-0.4285371 0.0643,-0.7606442 0.19279,-0.9963272 0.29991,-0.7499412 0.81405,-1.2641844 1.54241,-1.5427294 0.32133,-0.1713721 0.69622,-0.2570701 1.12467,-0.2570701 0.21421,0 0.55698,0.06427 1.02827,0.192802 0.7712,0.2785451 1.31747,0.7927783 1.6388,1.5427045 0.34276,0.7499262 0.34276,1.4998604 0,2.2498016 -0.34275,0.7499263 -0.85689,1.274872 -1.5424,1.574838 -0.66409,0.299965 -1.36032,0.299965 -2.08868,0 -0.66409,-0.278545 -1.14609,-0.6856487 -1.446,-1.2213149 -0.29991,-0.5356672 -0.44987,-1.0499003 -0.44987,-1.5427045 z m 2.53854,9.0955564 c 0,-1.307013 0.72836,-2.196211 2.18508,-2.667592 0.32133,-0.107104 0.58911,-0.160669 0.80333,-0.160669 0.3856,0 0.78192,0.09643 1.18894,0.289256 0.79262,0.278544 1.32818,0.932052 1.60667,1.96052 l 5.65549,20.987293 c 0.21421,0.814209 0.12853,1.553424 -0.25707,2.217641 -0.36418,0.664217 -0.93187,1.114177 -1.70308,1.349876 -0.79262,0.235691 -1.5424,0.160721 -2.24934,-0.224936 -0.68551,-0.385675 -1.13538,-0.964186 -1.3496,-1.735532 L 34.636324,17.57653 c -0.0857,-0.38569 -0.12853,-0.674956 -0.12853,-0.867792 z m 11.79297,1.414169 c 0,-0.428537 0.075,-0.782075 0.22495,-1.06062 0.27849,-0.685659 0.78191,-1.189181 1.51027,-1.51057 0.40702,-0.171371 0.80334,-0.25707 1.18894,-0.25707 0.21421,0 0.55698,0.06427 1.02827,0.192802 0.74978,0.299984 1.26391,0.803507 1.5424,1.51057 0.27849,0.749942 0.27849,1.478445 0,2.185509 -0.25707,0.685659 -0.72836,1.199902 -1.41387,1.54273 -0.74978,0.342812 -1.49956,0.374946 -2.24934,0.0964 -0.72836,-0.299966 -1.26391,-0.835624 -1.60667,-1.606971 -0.14996,-0.278561 -0.22495,-0.642812 -0.22495,-1.092755 z m 2.47428,8.774168 c 0,-0.557105 0.17139,-1.08206 0.51414,-1.574864 0.36417,-0.492805 0.88902,-0.846343 1.57453,-1.060621 0.57841,-0.06427 0.88903,-0.0964 0.93187,-0.0964 1.39245,0 2.27077,0.696361 2.63495,2.089082 l 2.9884,10.863248 c 0.21422,0.814209 0.12854,1.553424 -0.25707,2.217641 -0.36418,0.664217 -0.93187,1.114178 -1.70307,1.349876 -0.79263,0.235691 -1.5317,0.160721 -2.21721,-0.224936 -0.66409,-0.385675 -1.11396,-0.964186 -1.3496,-1.735532 l -3.02055,-10.895409 c -0.0643,-0.299965 -0.0964,-0.610644 -0.0964,-0.932033 z"
       id="text10"
       style="font-size:25.4px;line-height:1.1;font-family:'Weather Icons';-inkscape-font-specification:'Weather Icons';display:inline;opacity:0.530973;fill:#ffff00;stroke:#000000;stroke-width:0.259117;stroke-linecap:round;stroke-linejoin:round;stroke-dashoffset:0.990634"
       aria-label=""
       inkscape:label="rain_light"
       sodipodi:nodetypes="scccccscssssccccccsccssssccsccsccsssscsccccccccsssccsccccccsssccscccccccss" />
    <path
       d="m 23.575524,14.646807 c 0,-0.771365 0.27849,-1.435593 0.83547,-1.99268 0.55698,-0.557087 1.22107,-0.835632 1.99228,-0.835632 0.81405,0 1.48886,0.267832 2.02442,0.803498 0.55697,0.535667 0.83546,1.210605 0.83546,2.024814 0,0.81421 -0.27849,1.489147 -0.83546,2.024814 -0.53556,0.535648 -1.21037,0.803473 -2.02442,0.803473 -0.81404,0 -1.48885,-0.267825 -2.02441,-0.803473 -0.53556,-0.535667 -0.80334,-1.210604 -0.80334,-2.024814 z m 1.44602,12.470246 c 0,-0.814208 0.26778,-1.510578 0.80334,-2.089107 0.55698,-0.557088 1.23177,-0.835632 2.02438,-0.835632 0.81405,0 1.49957,0.278544 2.05654,0.835632 0.55698,0.578529 0.83547,1.274899 0.83547,2.089107 0,0.771347 -0.27849,1.435567 -0.83547,1.992654 -0.55697,0.557088 -1.24249,0.835633 -2.05654,0.835633 -0.79261,0 -1.4674,-0.278545 -2.02438,-0.835633 -0.53556,-0.557087 -0.80334,-1.221307 -0.80334,-1.992654 z m 8.06547,-19.2517593 c 0,-0.7499262 0.2785,-1.4034324 0.83549,-1.9605205 0.5784,-0.5785102 1.24248,-0.8677662 1.99226,-0.8677662 0.81405,0 1.51027,0.278545 2.08867,0.8356332 0.57841,0.5356661 0.86762,1.1998833 0.86762,1.9926535 0,0.8142092 -0.28921,1.5212914 -0.86762,2.1212416 -0.5784,0.5785097 -1.27462,0.8677657 -2.08867,0.8677657 -0.74978,0 -1.41386,-0.289256 -1.99226,-0.8677657 -0.55699,-0.5999502 -0.83549,-1.3070324 -0.83549,-2.1212416 z m 3.02057,14.7200483 c -0.557,-0.59995 -0.8355,-1.307032 -0.8355,-2.121241 0,-0.814209 0.28921,-1.489147 0.86763,-2.024814 0.55697,-0.557088 1.21035,-0.835633 1.96013,-0.835633 0.81405,0 1.51027,0.278545 2.08867,0.835633 0.59983,0.557106 0.89974,1.232044 0.89974,2.024814 0,0.814209 -0.29991,1.521291 -0.89974,2.121241 -0.5784,0.578511 -1.27462,0.867766 -2.08867,0.867766 -0.74978,0 -1.41387,-0.289255 -1.99226,-0.867766 z m 1.38173,10.349005 c 0,-0.814209 0.27849,-1.478429 0.83547,-1.992654 0.55698,-0.557087 1.22107,-0.835632 1.99226,-0.835632 0.83547,0 1.53169,0.267824 2.08867,0.803473 0.57841,0.535666 0.86762,1.210604 0.86762,2.024813 0,0.792789 -0.28921,1.467727 -0.86762,2.024814 -0.5784,0.578511 -1.27462,0.867766 -2.08867,0.867766 -0.77119,0 -1.43528,-0.289255 -1.99226,-0.867766 -0.55698,-0.557087 -0.83547,-1.232025 -0.83547,-2.024814 z m 8.16188,-18.28754 c 0,-0.771365 0.27849,-1.435593 0.83547,-1.99268 0.55698,-0.557087 1.24249,-0.835632 2.05654,-0.835632 0.79263,0 1.45673,0.278545 1.99229,0.835632 0.55697,0.535667 0.83546,1.199891 0.83546,1.99268 0,0.81421 -0.26778,1.489147 -0.80334,2.024814 -0.53556,0.535648 -1.21036,0.803473 -2.02441,0.803473 -0.81405,0 -1.49956,-0.267825 -2.05654,-0.803473 -0.55698,-0.535667 -0.83547,-1.210604 -0.83547,-2.024814 z m 1.44602,12.470246 c 0,-0.792788 0.2892,-1.478437 0.86759,-2.056948 0.5784,-0.578528 1.26391,-0.867791 2.05654,-0.867791 0.79264,0 1.45673,0.278544 1.99229,0.835632 0.55698,0.578529 0.83547,1.274899 0.83547,2.089107 0,0.771347 -0.27849,1.435567 -0.83547,1.992654 -0.53556,0.557088 -1.19965,0.835633 -1.99229,0.835633 -0.79263,0 -1.47814,-0.289255 -2.05654,-0.867767 -0.57839,-0.557087 -0.86759,-1.210594 -0.86759,-1.96052 z"
       id="text11"
       style="font-size:25.4px;line-height:1.1;font-family:'Weather Icons';-inkscape-font-specification:'Weather Icons';display:inline;opacity:0.530973;fill:#ffff00;stroke:#000000;stroke-width:0.259117;stroke-linecap:round;stroke-linejoin:round;stroke-dashoffset:0.990634"
       aria-label=""
       inkscape:label="snow"
       sodipodi:nodetypes="ssscscsssscscssscsssscscscscscscssscscscscscsssscsssssssscscscs" />
    <path
       d="m 4.631119,41.164043 q 0,-4.628132 2.24933,-8.549188 2.281485,-3.921057 6.169625,-6.202981 3.88816,-2.249789 8.48323,-2.249789 h 37.11413 q 4.59509,0 8.51536,2.249789 3.92028,2.281924 6.20174,6.202981 2.28149,3.921056 2.28149,8.549188 0,3.40682 -1.44602,6.845777 3.92029,4.788834 3.92029,11.345354 0,3.663937 -1.41386,6.974335 -1.41389,3.342541 -3.82389,5.753027 -2.41001,2.410484 -5.75188,3.824638 -3.30974,1.414151 -6.97296,1.414151 -7.61561,0 -13.30325,-5.978005 -3.98454,2.249786 -9.25441,2.249786 -7.23003,0 -12.78913,-4.499572 -5.55907,-4.467433 -7.13362,-11.473911 -5.75189,-1.317732 -9.41508,-5.913724 Q 4.631119,47.109907 4.631119,41.164043 Z m 5.848295,0 q 0,4.306733 2.85988,7.424296 2.89201,3.11756 7.23,3.631796 l 1.70309,0.09643 q 0.64265,0 0.64265,0.610658 l 0.22489,1.864108 q 0.70694,5.560186 4.82002,9.288403 4.11308,3.760357 9.64005,3.760357 5.65547,0 9.83281,-3.760357 4.20949,-3.760356 4.72363,-9.288403 l 0.25702,-1.992667 q 0.12851,-0.578518 0.70693,-0.578518 h 5.52694 q 4.53082,0 7.80843,-3.27826 3.27761,-3.27826 3.27761,-7.777833 0,-4.660273 -3.27761,-7.970672 -3.24549,-3.278259 -7.80843,-3.278259 h -37.11413 q -4.49866,0 -7.77627,3.310398 -3.27761,3.342541 -3.27761,7.938533 z m 22.97539,42.071006 q 0,-1.253451 0.83547,-2.153367 l 2.24936,-2.185505 q 1.28532,-0.964196 2.18507,-0.867777 1.06039,0 1.89588,0.867777 0.83547,0.899912 0.83547,2.153366 0,1.253452 -0.89975,2.024806 l -2.02441,2.249787 q -0.93185,0.835635 -2.08867,0.835635 -1.2532,0 -2.1208,-0.867774 -0.86762,-0.835636 -0.86762,-2.056948 z M 51.770874,68.06506 q 3.56682,3.43896 8.38683,3.43896 5.07708,0 8.61176,-3.535379 3.56682,-3.535379 3.56682,-8.613467 0,-3.213983 -1.73522,-6.299404 -4.98067,4.917391 -11.95363,4.917391 h -1.09254 q -1.28533,5.592327 -5.78402,10.091899 z m 5.55907,18.094711 q 0,-1.317732 0.80334,-2.121226 0.80334,-0.803496 2.02442,-0.803496 1.31748,0 2.12082,0.803496 0.80331,0.803494 0.80331,2.121226 v 7.006478 q 0,1.221312 -0.83547,2.024808 -0.80334,0.803494 -2.08866,0.803494 -1.22108,0 -2.02442,-0.803494 -0.80334,-0.803496 -0.80334,-2.024808 z m 18.9266,-7.874252 q 0,-1.317732 0.77121,-2.121228 1.09254,-0.835635 2.12082,-0.835635 0.93185,0 2.02439,0.835635 l 4.91642,4.917391 q 0.83547,0.932055 0.83547,2.185506 0,1.221312 -0.83547,2.056948 -0.83547,0.835635 -2.02441,0.835635 -1.22108,0 -1.99226,-0.835635 l -5.04496,-4.917389 q -0.77121,-0.932054 -0.77121,-2.121228 z m 3.56681,-38.503489 q -0.83547,-0.835635 -0.83547,-2.056947 0,-1.221313 0.86762,-2.153368 l 2.21721,-2.153366 q 0.77118,-0.835636 1.99226,-0.835636 1.22107,0 2.02441,0.835636 0.83547,0.867776 0.83547,2.153366 0,1.157035 -0.83547,1.992671 l -2.2172,2.217644 q -0.83547,0.835635 -1.96014,0.835635 -1.22107,0 -2.08869,-0.835635 z m 5.04496,21.630091 q -0.8676,-0.867777 -0.8676,-2.056947 0,-1.189174 0.89972,-1.99267 0.8355,-0.835635 2.0887,-0.835635 h 7.00508 q 1.18892,0 1.96013,0.803496 0.80334,0.803496 0.80334,2.024809 0,1.221312 -0.80334,2.056947 -0.77121,0.867774 -1.96013,0.867774 h -7.00508 q -1.22108,0 -2.12082,-0.867774 z"
       id="text12"
       style="font-size:25.4px;line-height:1.1;font-family:'Weather Icons';-inkscape-font-specification:'Weather Icons';display:inline;opacity:0.530973;fill:#ffff00;stroke:#000000;stroke-width:0.259117;stroke-linecap:round;stroke-linejoin:round;stroke-dashoffset:0.990634"
       aria-label=""
       inkscape:label="cloud_closed_with_sun" />
    <path
       d="m 4.724916,41.221557 q 0,5.94588 3.631088,10.541858 3.6632,4.596006 9.41508,5.881588 1.18895,5.303077 4.78789,9.256278 3.63109,3.985334 8.67604,5.688732 3.18121,1.092754 6.61949,1.092754 4.17733,0 8.06549,-1.639131 1.44599,2.410497 3.374,4.17819 1.96016,1.767667 4.0167,2.699726 2.08866,0.964193 4.0488,1.414169 1.96013,0.44995 3.85601,0.44995 1.96013,0 4.20948,-0.546377 l 2.7956,-0.867766 q 0.70694,-0.289282 0.48202,-0.771365 l -0.48202,-2.056948 q -0.35345,-1.606997 -0.35345,-2.956875 0,-1.606971 0.48199,-3.246102 0.51414,-1.639132 1.51027,-3.213995 0.99616,-1.574839 2.73134,-2.860447 1.73522,-1.285582 3.95242,-1.960521 l 2.1208,-0.739205 q 0.51414,-0.128535 0.51414,-0.546377 0,-0.0964 -0.0643,-0.224936 l -0.61055,-2.31407 q -1.41386,-5.528038 -5.14134,-8.806301 2.05654,-3.599651 2.21721,-7.681413 0.0321,-0.257069 0.0321,-0.771364 0,-4.59598 -2.28146,-8.517047 -2.28148,-3.888907 -6.20177,-6.170842 -3.88814,-2.28191 -8.48323,-2.28191 h -37.04984 q -4.59507,0 -8.48324,2.28191 -3.88813,2.281935 -6.137462,6.170842 -2.249356,3.921067 -2.249356,8.517047 z m 5.848298,0 q 0,-4.563846 3.27761,-7.906376 3.27761,-3.342555 7.74415,-3.342555 h 37.04984 q 4.56297,0 7.80843,3.310395 3.27762,3.310422 3.27762,7.938536 0,4.499577 -3.27762,7.745706 -3.27761,3.278263 -7.80843,3.278263 h -6.10534 l -0.35347,2.571164 q -0.51412,5.20665 -4.30587,8.870595 -3.79176,3.696079 -9.0295,4.113895 -0.16064,0 -0.51415,0.03213 -0.32132,0.03213 -0.48198,0.03213 -2.60281,0 -5.2699,-0.996353 v 0.06427 q -3.7596,-1.446303 -6.33028,-4.692406 -2.53853,-3.246129 -3.05267,-7.424318 l -0.2249,-2.474763 -2.34573,-0.0964 q -4.338,-0.514244 -7.19788,-3.631811 -2.85988,-3.117543 -2.85988,-7.392158 z m 40.26318,27.800938 q 5.46269,-4.660272 6.74804,-10.895382 h 1.09254 q 6.39454,0 10.86109,-4.049628 1.70307,1.606998 2.60281,3.663945 -4.69147,2.217643 -7.39069,6.749354 -2.69922,4.531711 -2.69922,9.545533 v 0.835633 q -0.25702,0.03213 -0.83546,0.03213 -2.98842,0.06427 -5.81615,-1.510572 -2.82775,-1.542704 -4.56296,-4.371017 z"
       id="text14"
       style="font-size:25.4px;line-height:1.1;font-family:'Weather Icons';-inkscape-font-specification:'Weather Icons';display:inline;opacity:0.530973;fill:#ffff00;stroke:#000000;stroke-width:0.259117;stroke-linecap:round;stroke-linejoin:round;stroke-dashoffset:0.990634"
       aria-label=""
       inkscape:label="cloud_closed_with_moon" />
    <path
       d="m 4.558799,41.231202 q 0,5.913726 3.695345,10.541856 3.69535,4.628134 9.38295,5.945866 1.60668,7.038616 7.23004,11.538189 5.62335,4.531711 12.8855,4.531711 7.10147,0 12.62844,-4.403153 5.55907,-4.403153 7.23003,-11.28107 h 1.12467 q 4.6272,0 8.54748,-2.249786 3.92029,-2.217648 6.20175,-6.106565 2.28149,-3.888915 2.28149,-8.517048 0,-4.531712 -2.18508,-8.388488 -2.15295,-3.856776 -5.94468,-6.202986 -3.75962,-2.31407 -8.25831,-2.442631 h -38.3673 q -6.87658,0.321415 -11.66444,5.238796 -4.787885,4.917392 -4.787885,11.795309 z m 5.848265,0 q 0,-4.467432 3.08483,-7.777832 3.11692,-3.278261 7.51923,-3.503238 h 38.3673 q 4.4023,0.224988 7.51923,3.503238 3.11695,3.3104 3.11695,7.777832 0,4.499575 -3.34187,7.777835 -3.34189,3.310399 -7.93696,3.310399 h -5.5591 q -0.57839,0 -0.57839,0.610655 l -0.25702,1.960528 q -0.5784,5.560188 -4.78789,9.320544 -4.20949,3.760357 -9.80068,3.760357 -5.62336,0 -9.80072,-3.760357 -4.1452,-3.760356 -4.69147,-9.320544 l -0.25702,-1.960528 q 0,-0.610655 -0.67481,-0.610655 h -1.79946 q -4.30588,-0.514239 -7.23004,-3.663937 -2.892,-3.149702 -2.892,-7.424297 z"
       id="text13"
       style="font-size:25.4px;line-height:1.1;font-family:'Weather Icons';-inkscape-font-specification:'Weather Icons';display:inline;opacity:0.530973;fill:#ffff00;stroke:#000000;stroke-width:0.259117;stroke-linecap:round;stroke-linejoin:round;stroke-dashoffset:0.990634"
       aria-label=""
       inkscape:label="cloud_closed" />
    <path
       d="m 23.587044,16.606905 c 0,0.107104 0.0215,0.257096 0.0643,0.449976 0.0428,0.171371 0.0643,0.299932 0.0643,0.385656 l 0.32133,2.024815 c 0.23564,0.814209 0.69623,1.424871 1.38173,1.831985 0.70694,0.385674 1.48885,0.471363 2.34574,0.25707 0.77121,-0.235691 1.34962,-0.707064 1.73521,-1.414143 0.3856,-0.70708 0.46057,-1.424872 0.2249,-2.153376 l -0.48202,-2.056947 c -0.34274,-1.49985 -1.21034,-2.249776 -2.60281,-2.249776 -0.10708,0 -0.26775,0.02151 -0.48198,0.06427 -0.19279,0.04284 -0.34276,0.06427 -0.44987,0.06427 -0.70693,0.214259 -1.2425,0.589221 -1.60667,1.124889 -0.34277,0.535666 -0.51415,1.092754 -0.51415,1.671264 z m 2.53852,10.09191 c 0,0.814209 0.26778,1.489147 0.80334,2.024813 0.53556,0.535667 1.21037,0.803499 2.02442,0.803499 0.81404,0 1.48885,-0.267832 2.02441,-0.803499 0.53556,-0.535666 0.80334,-1.210604 0.80334,-2.024813 0,-0.792789 -0.26778,-1.457014 -0.80334,-1.992681 -0.53556,-0.535648 -1.21037,-0.803472 -2.02441,-0.803472 -0.79264,0 -1.44601,0.278545 -1.96014,0.835632 -0.57841,0.535667 -0.86762,1.189173 -0.86762,1.960521 z m 5.62335,-20.5373417 c 0,0.128534 0.0428,0.3856561 0.12851,0.7713642 l 0.44989,2.0248145 c 0.23565,0.7713463 0.70693,1.36057 1.41386,1.767665 0.70694,0.385691 1.42459,0.460672 2.15295,0.224937 0.79262,-0.149967 1.39244,-0.567775 1.79947,-1.2534487 0.40702,-0.6856583 0.50342,-1.4677265 0.2892,-2.3462027 L 37.532934,5.325788 c -0.34276,-1.3927193 -1.25321,-2.0890805 -2.73135,-2.0890805 -0.25707,0 -0.53556,0.03213 -0.83546,0.0964 -0.7498,0.2142591 -1.30678,0.5999342 -1.67096,1.1570213 -0.36418,0.5356671 -0.54627,1.0927543 -0.54627,1.6712655 z m 2.69922,9.9633487 c 0,0.792788 0.26778,1.457005 0.80334,1.992653 0.53556,0.535668 1.21037,0.8035 2.02441,0.8035 0.81405,0 1.48885,-0.267832 2.02439,-0.8035 0.53556,-0.535648 0.80334,-1.199865 0.80334,-1.992653 0,-0.814209 -0.26778,-1.489148 -0.80334,-2.024815 -0.53554,-0.535666 -1.21034,-0.803498 -2.02439,-0.803498 -0.77121,0 -1.4353,0.278545 -1.99228,0.835632 -0.55698,0.557087 -0.83547,1.221316 -0.83547,1.992681 z m 2.1208,7.77784 c 0,0.342812 0.0321,0.653488 0.0964,0.932033 l 0.77121,3.085435 c 0.23564,0.792788 0.70694,1.39273 1.41386,1.799826 0.70694,0.428537 1.4353,0.524954 2.18508,0.289255 0.81405,-0.23569 1.41387,-0.696351 1.79947,-1.38201 0.40703,-0.68564 0.49271,-1.403432 0.25702,-2.153374 l -0.89972,-3.085409 c -0.27849,-0.942762 -0.74978,-1.585559 -1.41387,-1.928387 -0.6641,-0.342828 -1.39246,-0.407095 -2.18507,-0.192802 -0.68553,0.128535 -1.21038,0.471363 -1.57455,1.028487 -0.34276,0.557088 -0.49272,1.092754 -0.44987,1.606998 z m 9.47938,-7.327891 c 0,0.107104 0.0106,0.257096 0.0321,0.44995 0.0428,0.192854 0.0642,0.321415 0.0642,0.385683 l 0.32133,2.024814 c 0.23564,0.814209 0.69623,1.424864 1.38174,1.831959 0.70694,0.38569 1.48885,0.471381 2.34573,0.25707 0.77122,-0.235691 1.34962,-0.707064 1.73522,-1.414143 0.40701,-0.707079 0.49269,-1.424872 0.25702,-2.153375 l -0.48202,-2.056947 c -0.34274,-1.49985 -1.21034,-2.249776 -2.60281,-2.249776 -0.10708,0 -0.26775,0.02151 -0.48198,0.06427 -0.21425,0.04284 -0.37491,0.06427 -0.48202,0.06427 -0.6855,0.21426 -1.21034,0.589222 -1.57452,1.124889 -0.34276,0.535667 -0.51414,1.092754 -0.51414,1.671265 z m 2.53853,10.09191 c 0,0.814209 0.26778,1.489139 0.80334,2.024788 0.53556,0.535666 1.21037,0.803498 2.02442,0.803498 0.81404,0 1.48885,-0.267832 2.02441,-0.803498 0.53554,-0.535649 0.80331,-1.210579 0.80331,-2.024788 0,-0.792789 -0.26777,-1.457014 -0.80331,-1.99268 -0.53556,-0.535667 -1.21037,-0.803499 -2.02441,-0.803499 -0.81405,0 -1.47815,0.278545 -1.99229,0.835632 -0.55698,0.514244 -0.83547,1.167758 -0.83547,1.960547 z"
       id="text15"
       style="font-size:25.4px;line-height:1.1;font-family:'Weather Icons';-inkscape-font-specification:'Weather Icons';display:inline;opacity:0.530973;fill:#ffff00;stroke:#000000;stroke-width:0.259117;stroke-linecap:round;stroke-linejoin:round;stroke-dashoffset:0.990634"
       aria-label=""
       inkscape:label="drizzle_light"
       sodipodi:nodetypes="ccccccsccscccccssssssscssccccsccsccsssssssssssccccccccscccccccccccccssccccssssssscs" />
    <path
       d="m 5.608144,55.42006 q 0,-1.382009 0.964002,-2.281934 0.963998,-0.8999 2.474278,-0.8999 h 5.78404 q 1.38173,0 2.34573,0.8999 0.99613,0.932059 0.99613,2.281934 0,1.478438 -0.964,2.442631 -0.964,0.964193 -2.37786,0.964193 h -5.78404 q -1.51028,0 -2.474278,-0.964193 Q 5.608144,56.930632 5.608144,55.42006 Z m 6.07324,-21.212279 q 0,-4.981662 3.63106,-8.613473 3.6311,-3.663919 8.61177,-3.663919 h 23.52166 q 4.9807,0 8.51539,3.599651 3.56681,3.599652 3.56681,8.677741 0,2.474763 -0.70696,4.210322 4.27377,2.731886 6.74804,7.263597 2.5064,4.563845 2.5064,9.73836 0,4.178164 -1.6388,7.97067 -1.63881,3.82464 -4.40228,6.556524 -2.73134,2.76402 -6.55523,4.403152 -3.79175,1.639132 -7.93696,1.639132 -5.62335,0 -10.37911,-2.764021 -4.7236,-2.764044 -7.45495,-7.488585 -2.69921,-4.724539 -2.69921,-10.316872 v -1.157047 q -5.14134,-2.924714 -6.78015,-8.549179 -3.88813,-1.221315 -6.23387,-4.338883 -2.31361,-3.117542 -2.31361,-7.16717 z m 5.33415,48.563244 q 0,-1.446277 0.89972,-2.314069 l 5.52695,-5.78516 q 2.41002,-1.831961 4.82003,0 0.96401,0.964193 0.96401,2.410496 0,1.38201 -0.96401,2.410471 l -5.6555,5.624465 q -1.09254,0.996354 -2.37787,0.996354 -1.44601,0 -2.34573,-0.964193 -0.8676,-0.964195 -0.8676,-2.378364 z m 1.44599,-48.563244 q 0,2.153374 1.38174,3.696079 1.38173,1.542704 3.50255,1.735558 l 2.1208,0.289255 q 0.6748,0 0.6748,0.771339 l 0.32133,1.928414 q 0.35348,2.956847 2.50642,4.949527 2.15293,1.992655 5.07709,1.992655 2.98841,0 5.17346,-1.992655 2.21723,-1.99268 2.57068,-4.949527 l 0.2892,-2.217669 q 0.32135,-0.771339 0.83547,-0.771339 h 4.53081 q 2.21723,0 3.82388,-1.606997 1.63881,-1.606998 1.63881,-3.82464 0,-2.314069 -1.63881,-3.9532 -1.60665,-1.639132 -3.82388,-1.639132 h -23.52166 q -2.31361,0 -3.88814,1.639132 -1.57455,1.639131 -1.57455,3.9532 z m 15.16699,21.919352 q 0.35346,5.624465 4.338,9.449105 3.98455,3.824639 9.57577,3.824639 5.71976,0 9.73643,-4.081761 4.01667,-4.081761 4.01667,-9.899056 0,-3.599651 -1.76731,-6.685085 -1.73522,-3.053275 -4.72363,-4.949528 -3.02054,2.506898 -6.97296,2.506898 -1.51027,4.499577 -5.26987,7.16717 -3.75963,2.667618 -8.51536,2.667618 z m 10.5719,29.986449 q 0,-1.41417 0.964,-2.410497 0.99613,-0.964193 2.37787,-0.964193 1.41386,0 2.37789,0.964193 0.99613,0.996327 0.99613,2.410497 v 8.034935 q 0,1.349876 -0.99613,2.249803 -0.96403,0.932033 -2.37789,0.932033 -1.38174,0 -2.37787,-0.932033 -0.964,-0.899927 -0.964,-2.249803 z m 22.55766,-49.880987 q -0.89972,-0.93206 -0.89972,-2.314069 0,-1.38201 0.93188,-2.410497 l 5.62335,-5.560171 q 2.15292,-2.185509 4.82001,0 0.89972,0.867766 0.89972,2.314068 0,1.38201 -0.89972,2.28191 l -5.78401,5.753026 q -0.93188,0.867793 -2.34577,0.867793 -1.41386,0 -2.34574,-0.93206 z m -0.89972,40.913964 q 0,-1.446276 0.93188,-2.474763 0.93185,-0.932062 2.31358,-0.932062 1.41389,0 2.34577,0.932062 l 5.78401,5.78516 q 0.89972,0.867792 0.89972,2.314069 0,1.414169 -0.99613,2.378364 -0.964,0.964193 -2.37786,0.964193 -1.34961,0 -2.34574,-0.996354 l -5.62335,-5.624465 q -0.93188,-0.932034 -0.93188,-2.346204 z m 8.86881,-21.726499 q 0,-1.382009 0.96401,-2.281934 0.964,-0.8999 2.4743,-0.8999 h 5.78401 q 1.38173,0 2.34574,0.8999 0.99613,0.932059 0.99613,2.281934 0,1.478438 -0.96401,2.442631 -0.964,0.964193 -2.37786,0.964193 h -5.78401 q -1.5103,0 -2.4743,-0.964193 -0.96401,-0.932059 -0.96401,-2.442631 z"
       id="text16"
       style="font-size:25.4px;line-height:1.1;font-family:'Weather Icons';-inkscape-font-specification:'Weather Icons';display:inline;opacity:0.530973;fill:#ffff00;stroke:#000000;stroke-width:0.259117;stroke-linecap:round;stroke-linejoin:round;stroke-dashoffset:0.990634"
       aria-label=""
       inkscape:label="small_cloud_with_sun" />
    <path
       d="m 10.926454,59.688525 q 0,1.253474 0.8676,2.12124 0.89975,0.835633 2.05654,0.835633 h 7.00509 q 1.18894,0 1.96015,-0.867766 0.80332,-0.867792 0.80332,-2.089107 0,-1.22129 -0.80332,-2.089082 -0.77121,-0.835632 -1.96015,-0.835632 h -7.00509 q -1.18895,0 -2.05654,0.867766 -0.8676,0.867792 -0.8676,2.056948 z m 9.80069,-23.751312 q 0,1.189182 0.80334,2.089082 l 5.04496,4.88526 q 0.77121,0.803498 2.02441,0.803498 1.22107,0 2.02438,-0.771365 0.8355,-0.771338 0.8355,-1.960519 0,-1.25345 -0.8355,-2.185509 l -4.88426,-4.88526 q -2.08867,-1.639106 -4.20949,0 -0.80334,0.867792 -0.80334,2.024813 z m 0,47.47049 q 0,1.189182 0.80334,2.089108 0.99613,0.835633 2.18508,0.835633 1.12466,0 2.02441,-0.835633 l 4.88426,-5.045956 q 0.8355,-0.771364 0.8355,-2.024813 0,-1.221316 -0.8355,-2.056948 -0.80331,-0.803498 -2.02438,-0.803498 -1.2532,0 -2.02441,0.835632 l -5.04496,4.88526 q -0.80334,0.867767 -0.80334,2.121215 z m 8.7403,-23.719178 q 0,4.788833 2.41002,8.902728 2.40999,4.146054 6.52307,6.556526 4.14521,2.410496 8.9331,2.410496 3.59896,0 6.9087,-1.446302 3.30974,-1.414143 5.68761,-3.824641 2.41002,-2.378338 3.82388,-5.688734 1.41386,-3.310395 1.41386,-6.910073 0,-4.820968 -2.40999,-8.934863 -2.37789,-4.113895 -6.49097,-6.524365 -4.11308,-2.378362 -8.93309,-2.378362 -4.82002,0 -8.9331,2.378362 -4.11308,2.41047 -6.52307,6.524365 -2.41002,4.113895 -2.41002,8.934863 z m 5.81614,0 q 0,-5.013796 3.50256,-8.581314 3.53468,-3.535384 8.54749,-3.535384 5.01282,0 8.54751,3.535384 3.56681,3.567518 3.56681,8.581314 0,4.949553 -3.56681,8.452778 -3.53469,3.50325 -8.54751,3.50325 -4.98068,0 -8.51536,-3.50325 -3.53469,-3.503225 -3.53469,-8.452778 z m 9.12591,-26.643892 q 0,1.221316 0.83547,2.056948 0.86759,0.835632 2.08867,0.835632 1.2532,0 2.08869,-0.835632 0.83547,-0.835632 0.83547,-2.056948 v -6.813646 q 0,-1.25345 -0.86762,-2.121216 -0.83547,-0.867766 -2.05654,-0.867766 -1.22108,0 -2.08867,0.867766 -0.83547,0.867766 -0.83547,2.121216 z m 0,53.127116 v 7.006475 q 0,1.189155 0.8676,2.056947 0.86762,0.867766 2.05654,0.867766 1.18894,0 2.05654,-0.867766 0.86762,-0.867792 0.86762,-2.056947 v -7.006475 q 0,-1.189182 -0.86762,-1.992681 -0.83547,-0.771365 -2.05654,-0.771365 -1.22108,0 -2.08867,0.771365 -0.83547,0.803499 -0.83547,1.992681 z m 18.9266,-45.18858 q 0,1.189181 0.77121,1.928386 0.77119,0.803498 1.928,0.803498 1.2532,0 2.05654,-0.803498 l 5.01281,-4.88526 q 0.83546,-0.8999 0.83546,-2.089082 0,-1.189155 -0.83546,-2.024813 -2.05654,-1.606972 -4.11308,0 l -4.88427,4.88526 q -0.77121,0.867766 -0.77121,2.185509 z m 0,37.442873 q 0,1.285582 0.77121,2.024813 l 4.88427,5.045956 q 0.89974,0.835633 2.02441,0.835633 1.22107,0 2.05654,-0.867792 0.86759,-0.867767 0.86759,-2.056949 0,-1.285582 -0.83546,-2.121215 l -5.01281,-4.88526 q -0.93187,-0.835632 -2.05654,-0.835632 -1.15681,0 -1.928,0.803498 -0.77121,0.835632 -0.77121,2.056948 z m 8.54748,-20.826599 q -0.80331,0.867792 -0.80331,2.089082 0,1.221315 0.83547,2.12124 0.83546,0.835633 1.96013,0.835633 h 6.94083 q 1.18892,0 2.05654,-0.899926 0.89972,-0.867766 0.89972,-2.056947 0,-1.189156 -0.89972,-2.056948 -0.86762,-0.867766 -2.05654,-0.867766 h -6.94083 q -1.18895,0 -1.99229,0.835632 z"
       id="text17"
       style="font-size:25.4px;line-height:1.1;font-family:'Weather Icons';-inkscape-font-specification:'Weather Icons';display:inline;opacity:0.530973;fill:#ffff00;stroke:#000000;stroke-width:0.259117;stroke-linecap:round;stroke-linejoin:round;stroke-dashoffset:0.990634"
       aria-label=" "
       inkscape:label="sun" />
    <path
       d="m 8.641074,42.705629 q 0,1.157048 0.80334,1.928388 0.80334,0.771364 1.96013,0.771364 h 41.42 q 1.12467,0 1.86375,-0.771364 0.73906,-0.739207 0.73906,-1.928388 0,-1.124887 -0.73906,-1.864092 -0.73908,-0.739233 -1.86375,-0.739233 h -41.42 q -1.15679,0 -1.96013,0.739233 -0.80334,0.739205 -0.80334,1.864092 z m 9.09376,8.002828 q -0.80334,0.803473 -0.80334,1.928388 0,1.124887 0.80334,1.896226 0.77121,0.771365 1.928,0.771365 h 41.45215 q 1.09254,0 1.8316,-0.771365 0.77121,-0.771339 0.77121,-1.896226 0,-1.124915 -0.77121,-1.928388 -0.73906,-0.771364 -1.8316,-0.771364 h -41.45215 q -1.12466,0 -1.928,0.771364 z m 4.72363,-17.741189 q 0,1.092755 0.83546,1.86412 0.73906,0.739205 1.86373,0.739205 h 41.48428 q 1.15679,0 1.928,-0.739205 0.77121,-0.739231 0.77121,-1.86412 0,-1.124887 -0.80333,-1.928386 -0.77122,-0.803498 -1.89588,-0.803498 h -41.48428 q -1.12467,0 -1.92801,0.803498 -0.77118,0.803499 -0.77118,1.928386 z m 36.27863,9.738361 q 0,1.189181 0.73909,1.928388 0.77118,0.771364 1.96013,0.771364 h 15.48832 q 1.18894,0 1.928,-0.771364 0.77122,-0.77134 0.77122,-1.928388 0,-1.124887 -0.77122,-1.864092 -0.77121,-0.739233 -1.928,-0.739233 h -15.48832 q -1.18895,0 -1.96013,0.739233 -0.73909,0.739205 -0.73909,1.864092 z"
       id="text18"
       style="font-size:25.4px;line-height:1.1;font-family:'Weather Icons';-inkscape-font-specification:'Weather Icons';display:inline;opacity:0.530973;fill:#ffff00;stroke:#000000;stroke-width:0.259117;stroke-linecap:round;stroke-linejoin:round;stroke-dashoffset:0.990634"
       aria-label=""
       inkscape:label="fog" />
    <path
       d="m 11.775514,34.223169 q 0,4.048396 2.31293,7.165034 2.34504,3.116662 6.23204,4.337626 1.63832,5.590666 6.81028,8.546652 v 1.188813 q 0,7.486365 4.72222,13.173432 4.75435,5.719218 12.01436,7.068659 1.83107,0.321328 3.69426,0.321328 h 0.0964 q 1.06009,0 2.40929,-0.160501 1.31709,-0.0964 2.50567,-0.38558 l 3.11602,-0.963886 q 0.6746,-0.353454 0.54611,-0.899662 l -0.44974,-2.409777 q -0.38548,-1.638644 -0.38548,-3.309415 0,-1.799321 0.5461,-3.694993 0.57824,-1.863548 1.70257,-3.69497 1.15646,-1.799322 3.11603,-3.309464 1.99168,-1.477967 4.5616,-2.249102 l 2.44142,-0.706858 q 0.57823,-0.128452 0.57823,-0.610507 0,-0.192802 -0.0321,-0.256977 l -0.61036,-2.345553 q -0.28912,-1.253065 -0.73885,-2.506155 -0.77098,-2.249102 -2.4093,-4.691007 0,0.03205 -0.0321,0.03205 -2.24868,-3.245164 -5.62169,-5.397888 0.70673,-1.735047 0.70673,-4.241201 0,-5.076585 -3.56576,-8.643053 -3.53364,-3.598593 -8.51285,-3.598593 h -23.48261 q -4.97922,0 -8.64135,3.630718 -3.63001,3.630718 -3.63001,8.610928 z m 6.77815,0 q 0,-2.313403 1.57408,-3.952047 1.6062,-1.60652 3.91912,-1.60652 h 23.48261 q 2.21655,0 3.82275,1.638645 1.63833,1.638643 1.63833,3.919922 0,2.216975 -1.63833,3.823494 -1.6062,1.638644 -3.82275,1.638644 h -4.49735 q -0.54611,0 -0.86735,0.771134 l -0.28912,2.184851 q -0.35336,2.956011 -2.56991,4.948058 -2.18443,1.9921 -5.17196,1.9921 -2.92328,0 -5.07558,-1.9921 -2.12018,-1.992047 -2.47355,-4.948058 l -0.35336,-1.895697 q 0,-0.771109 -0.64248,-0.771109 l -2.15231,-0.289179 q -2.12017,-0.192801 -3.5015,-1.767171 -1.38134,-1.542243 -1.38134,-3.694967 z m 15.16251,21.94501 h 0.41761 q 4.75435,0 8.51285,-2.698958 3.79063,-2.666807 5.30045,-7.165061 3.98337,0 6.9709,-2.474029 3.56576,2.216977 5.23621,6.008373 -5.33258,2.698931 -8.35223,7.711266 -2.98753,5.012334 -2.98753,10.667276 v 1.156663 q -0.16062,0 -0.41761,0 -0.257,0.03205 -0.41761,0.03205 -3.14815,0 -6.07143,-1.349466 -2.92328,-1.349489 -4.94709,-3.855645 l -0.0964,0.06435 q -2.79478,-3.470066 -3.14815,-8.09682 z"
       id="text1"
       style="font-size:25.4px;line-height:1.1;font-family:'Weather Icons';-inkscape-font-specification:'Weather Icons';display:inline;opacity:0.530973;fill:#ffff00;stroke:#000000;stroke-width:0.259039;stroke-linecap:round;stroke-linejoin:round;stroke-dashoffset:0.990634"
       aria-label=" "
       inkscape:label="small_cloud_with_moon" />
  </g>
</svg>
